<svg width="44" height="33" viewBox="0 0 44 33" fill="none" xmlns="http://www.w3.org/2000/svg">
<path d="M15.93 26C15.6922 27.6686 14.8604 29.1954 13.5874 30.2999C12.3143 31.4044 10.6854 32.0125 9 32.0125C7.31456 32.0125 5.68571 31.4044 4.41264 30.2999C3.13957 29.1954 2.30776 27.6686 2.07 26H0V2C0 1.46957 0.210714 0.96086 0.585786 0.585787C0.960859 0.210714 1.46957 0 2 0H30C30.5304 0 31.0391 0.210714 31.4142 0.585787C31.7893 0.96086 32 1.46957 32 2V6H38L44 14.112V26H39.93C39.6922 27.6686 38.8604 29.1954 37.5874 30.2999C36.3143 31.4044 34.6854 32.0125 33 32.0125C31.3146 32.0125 29.6857 31.4044 28.4126 30.2999C27.1396 29.1954 26.3078 27.6686 26.07 26H15.93ZM28 4H4V20.1C4.78912 19.2944 5.7612 18.6914 6.83351 18.3422C7.90581 17.9931 9.04659 17.9082 10.1588 18.0948C11.2709 18.2814 12.3215 18.7339 13.2212 19.4138C14.1209 20.0937 14.843 20.981 15.326 22H26.674C27.01 21.294 27.46 20.652 28 20.1V4ZM32 16H40V15.43L35.984 10H32V16ZM33 28C33.7959 28 34.5592 27.6838 35.122 27.121C35.6848 26.5582 36.001 25.7949 36.001 24.999C36.001 24.2031 35.6848 23.4398 35.122 22.877C34.5592 22.3142 33.7959 21.998 33 21.998C32.2041 21.998 31.4408 22.3142 30.878 22.877C30.3152 23.4398 29.999 24.2031 29.999 24.999C29.999 25.7949 30.3152 26.5582 30.878 27.121C31.4408 27.6838 32.2041 28 33 28ZM12 25C12 24.606 11.9224 24.2159 11.7716 23.8519C11.6209 23.488 11.3999 23.1573 11.1213 22.8787C10.8427 22.6001 10.512 22.3791 10.1481 22.2284C9.78407 22.0776 9.39397 22 9 22C8.60603 22 8.21593 22.0776 7.85195 22.2284C7.48797 22.3791 7.15726 22.6001 6.87868 22.8787C6.6001 23.1573 6.37913 23.488 6.22836 23.8519C6.0776 24.2159 6 24.606 6 25C6 25.7956 6.31607 26.5587 6.87868 27.1213C7.44129 27.6839 8.20435 28 9 28C9.79565 28 10.5587 27.6839 11.1213 27.1213C11.6839 26.5587 12 25.7956 12 25Z" fill="#FF3334"/>
</svg>
