<svg width="36" height="42" viewBox="0 0 36 42" fill="none" xmlns="http://www.w3.org/2000/svg">
<path d="M15.9998 36V24L11.9998 22V16H23.9998V22L19.9998 24V36L29.9998 38V42H5.99984V38L15.9998 36ZM13.9998 2.446V0H21.9998V2.446C25.4306 3.22935 28.5567 5.00085 30.9916 7.54156C33.4265 10.0823 35.0636 13.2808 35.7004 16.7418C36.3373 20.2028 35.946 23.7745 34.5749 27.0155C33.2038 30.2565 30.9131 33.0248 27.9858 34.978L25.7658 31.65C28.2657 29.9831 30.1629 27.5561 31.1771 24.7279C32.1913 21.8996 32.2688 18.8201 31.3979 15.9444C30.5271 13.0688 28.7542 10.5496 26.3413 8.75916C23.9284 6.96874 21.0035 6.0021 17.9988 6.0021C14.9942 6.0021 12.0693 6.96874 9.6564 8.75916C7.24349 10.5496 5.4706 13.0688 4.59976 15.9444C3.72892 18.8201 3.80634 21.8996 4.82056 24.7279C5.83479 27.5561 7.73202 29.9831 10.2318 31.65L8.01384 34.978C5.08658 33.0248 2.79585 30.2565 1.42478 27.0155C0.0537164 23.7745 -0.337583 20.2028 0.299251 16.7418C0.936085 13.2808 2.57314 10.0823 5.00806 7.54156C7.44299 5.00085 10.569 3.22935 13.9998 2.446Z" fill="#FF3334"/>
</svg>
