<svg width="44" height="44" viewBox="0 0 44 44" fill="none" xmlns="http://www.w3.org/2000/svg">
<path d="M15.3718 6.00001L20.5858 0.786012C20.9608 0.41107 21.4694 0.200439 21.9998 0.200439C22.5301 0.200439 23.0387 0.41107 23.4138 0.786012L28.6278 6.00001H35.9998C36.5302 6.00001 37.0389 6.21073 37.414 6.5858C37.7891 6.96087 37.9998 7.46958 37.9998 8.00001V15.372L43.2138 20.586C43.5887 20.9611 43.7993 21.4697 43.7993 22C43.7993 22.5303 43.5887 23.039 43.2138 23.414L37.9998 28.628V36C37.9998 36.5304 37.7891 37.0392 37.414 37.4142C37.0389 37.7893 36.5302 38 35.9998 38H28.6278L23.4138 43.214C23.0387 43.589 22.5301 43.7996 21.9998 43.7996C21.4694 43.7996 20.9608 43.589 20.5858 43.214L15.3718 38H7.99977C7.46934 38 6.96063 37.7893 6.58556 37.4142C6.21048 37.0392 5.99977 36.5304 5.99977 36V28.628L0.785768 23.414C0.410826 23.039 0.200195 22.5303 0.200195 22C0.200195 21.4697 0.410826 20.9611 0.785768 20.586L5.99977 15.372V8.00001C5.99977 7.46958 6.21048 6.96087 6.58556 6.5858C6.96063 6.21073 7.46934 6.00001 7.99977 6.00001H15.3718ZM21.9998 28C23.5911 28 25.1172 27.3679 26.2424 26.2427C27.3676 25.1174 27.9998 23.5913 27.9998 22C27.9998 20.4087 27.3676 18.8826 26.2424 17.7574C25.1172 16.6322 23.5911 16 21.9998 16C20.4085 16 18.8823 16.6322 17.7571 17.7574C16.6319 18.8826 15.9998 20.4087 15.9998 22C15.9998 23.5913 16.6319 25.1174 17.7571 26.2427C18.8823 27.3679 20.4085 28 21.9998 28Z" fill="#FF3334"/>
</svg>
