<svg width="40" height="40" viewBox="0 0 40 40" fill="none" xmlns="http://www.w3.org/2000/svg">
<rect width="40" height="40" rx="20" fill="white"/>
<path d="M23.402 29V22.034H25.735L26.084 19.326H23.402V17.598C23.402 16.814 23.62 16.279 24.744 16.279H26.178V13.857C25.4838 13.7833 24.7861 13.7476 24.088 13.75C22.021 13.75 20.606 15.012 20.606 17.33V19.326H18.268V22.034H20.606V29H12C11.7348 29 11.4804 28.8946 11.2929 28.7071C11.1054 28.5196 11 28.2652 11 28V12C11 11.7348 11.1054 11.4804 11.2929 11.2929C11.4804 11.1054 11.7348 11 12 11H28C28.2652 11 28.5196 11.1054 28.7071 11.2929C28.8946 11.4804 29 11.7348 29 12V28C29 28.2652 28.8946 28.5196 28.7071 28.7071C28.5196 28.8946 28.2652 29 28 29H23.402Z" fill="#FF3334"/>
</svg>
