<svg width="12" height="15" viewBox="0 0 12 15" fill="none" xmlns="http://www.w3.org/2000/svg">
<path d="M10.2427 10.5761L6 14.8187L1.75734 10.5761C0.918228 9.73696 0.346791 8.66786 0.115286 7.50398C-0.11622 6.3401 0.00260456 5.1337 0.456732 4.03735C0.91086 2.941 1.6799 2.00393 2.66659 1.34464C3.65328 0.685358 4.81332 0.333466 6 0.333466C7.18669 0.333466 8.34672 0.685358 9.33342 1.34464C10.3201 2.00393 11.0891 2.941 11.5433 4.03735C11.9974 5.1337 12.1162 6.3401 11.8847 7.50398C11.6532 8.66786 11.0818 9.73696 10.2427 10.5761ZM6 7.66675C6.35362 7.66675 6.69276 7.52627 6.94281 7.27622C7.19286 7.02617 7.33334 6.68704 7.33334 6.33341C7.33334 5.97979 7.19286 5.64065 6.94281 5.3906C6.69276 5.14056 6.35362 5.00008 6 5.00008C5.64638 5.00008 5.30724 5.14056 5.05719 5.3906C4.80715 5.64065 4.66667 5.97979 4.66667 6.33341C4.66667 6.68704 4.80715 7.02617 5.05719 7.27622C5.30724 7.52627 5.64638 7.66675 6 7.66675Z" fill="#FF3334"/>
</svg>
