<svg width="935" height="480" viewBox="0 0 935 480" fill="none" xmlns="http://www.w3.org/2000/svg">
<g opacity="0.3" clip-path="url(#clip0_240_1025)">
<g opacity="0.6">
<path opacity="0.3" d="M794.02 513.26V459.29L747.27 432.3L700.53 459.29V513.26L747.27 540.25L794.02 513.26Z" stroke="white" stroke-miterlimit="10"/>
<path opacity="0.3" d="M700.53 459.29V405.32L653.78 378.33L607.03 405.32V459.29L653.78 486.28L700.53 459.29Z" stroke="white" stroke-miterlimit="10"/>
<path opacity="0.3" d="M653.78 485.94V431.97L607.03 404.98L560.29 431.97V485.94L607.03 512.93L653.78 485.94Z" stroke="white" stroke-miterlimit="10"/>
<path opacity="0.3" d="M607.03 459.29V405.32L560.29 378.33L513.54 405.32V459.29L560.29 486.28L607.03 459.29Z" stroke="white" stroke-miterlimit="10"/>
<path opacity="0.3" d="M653.78 539.92V485.94L607.03 458.96L560.29 485.94V539.92L607.03 566.91L653.78 539.92Z" stroke="white" stroke-miterlimit="10"/>
<path opacity="0.3" d="M840.76 378.65V324.67L794.02 297.69L747.27 324.67V378.65L794.02 405.64L840.76 378.65Z" stroke="white" stroke-miterlimit="10"/>
<path opacity="0.3" d="M794.02 405.32V351.34L747.27 324.35L700.53 351.34V405.32L747.27 432.31L794.02 405.32Z" stroke="white" stroke-miterlimit="10"/>
<path opacity="0.3" d="M747.27 377.99V324.01L700.53 297.03L653.78 324.01V377.99L700.53 404.98L747.27 377.99Z" stroke="white" stroke-miterlimit="10"/>
<path opacity="0.3" d="M747.27 485.94V431.97L700.53 404.98L653.78 431.97V485.94L700.53 512.93L747.27 485.94Z" stroke="white" stroke-miterlimit="10"/>
<path opacity="0.3" d="M934.25 485.94V431.97L887.51 404.98L840.76 431.97V485.94L887.51 512.93L934.25 485.94Z" stroke="white" stroke-miterlimit="10"/>
<path opacity="0.3" d="M887.51 513.26V459.29L840.76 432.3L794.02 459.29V513.26L840.76 540.25L887.51 513.26Z" stroke="white" stroke-miterlimit="10"/>
</g>
<g opacity="0.6">
<path opacity="0.3" d="M513.42 296.87V242.89L466.67 215.91L419.93 242.89V296.87L466.67 323.86L513.42 296.87Z" stroke="white" stroke-miterlimit="10"/>
<path opacity="0.3" d="M466.67 216.23V162.26L419.93 135.27L373.18 162.26V216.23L419.93 243.22L466.67 216.23Z" stroke="white" stroke-miterlimit="10"/>
<path opacity="0.3" d="M373.18 162.27V108.29L326.44 81.2998L279.69 108.29V162.27L326.44 189.25L373.18 162.27Z" stroke="white" stroke-miterlimit="10"/>
<path opacity="0.3" d="M373.18 270.21V216.24L326.44 189.25L279.69 216.24V270.21L326.44 297.2L373.18 270.21Z" stroke="white" stroke-miterlimit="10"/>
<path opacity="0.3" d="M326.44 188.92V134.94L279.69 107.95L232.95 134.94V188.92L279.69 215.91L326.44 188.92Z" stroke="white" stroke-miterlimit="10"/>
<path opacity="0.3" d="M279.69 162.27V108.29L232.95 81.2998L186.2 108.29V162.27L232.95 189.25L279.69 162.27Z" stroke="white" stroke-miterlimit="10"/>
<path opacity="0.3" d="M326.44 242.89V188.92L279.69 161.93L232.95 188.92V242.89L279.69 269.88L326.44 242.89Z" stroke="white" stroke-miterlimit="10"/>
<path opacity="0.3" d="M513.42 81.6202V27.6502L466.67 0.660156L419.93 27.6502V81.6202L466.67 108.61L513.42 81.6202Z" stroke="white" stroke-miterlimit="10"/>
<path opacity="0.3" d="M466.67 108.29V54.3098L419.93 27.3198L373.18 54.3098V108.29L419.93 135.28L466.67 108.29Z" stroke="white" stroke-miterlimit="10"/>
<path opacity="0.3" d="M419.93 80.96V26.99L373.18 0L326.44 26.99V80.96L373.18 107.95L419.93 80.96Z" stroke="white" stroke-miterlimit="10"/>
<path opacity="0.3" d="M419.93 188.92V134.94L373.18 107.95L326.44 134.94V188.92L373.18 215.91L419.93 188.92Z" stroke="white" stroke-miterlimit="10"/>
<path opacity="0.3" d="M279.69 270.21V216.23L232.95 189.25L186.2 216.23V270.21L232.95 297.2L279.69 270.21Z" stroke="white" stroke-miterlimit="10"/>
<path opacity="0.3" d="M232.95 296.87V242.89L186.2 215.91L139.45 242.89V296.87L186.2 323.86L232.95 296.87Z" stroke="white" stroke-miterlimit="10"/>
<path opacity="0.3" d="M466.67 324.19V270.21L419.93 243.22L373.18 270.21V324.19L419.93 351.18L466.67 324.19Z" stroke="white" stroke-miterlimit="10"/>
<path opacity="0.3" d="M373.18 324.19V270.21L326.44 243.22L279.69 270.21V324.19L326.44 351.18L373.18 324.19Z" stroke="white" stroke-miterlimit="10"/>
<path opacity="0.3" d="M560.16 378.17V324.19L513.42 297.2L466.67 324.19V378.17L513.42 405.16L560.16 378.17Z" stroke="white" stroke-miterlimit="10"/>
<path opacity="0.3" d="M513.42 404.82V350.85L466.67 323.86L419.93 350.85V404.82L466.67 431.81L513.42 404.82Z" stroke="white" stroke-miterlimit="10"/>
<path opacity="0.3" d="M560.16 270.21V216.24L513.42 189.25L466.67 216.24V270.21L513.42 297.2L560.16 270.21Z" stroke="white" stroke-miterlimit="10"/>
<path opacity="0.3" d="M606.91 188.92V134.94L560.16 107.95L513.42 134.94V188.92L560.16 215.91L606.91 188.92Z" stroke="white" stroke-miterlimit="10"/>
<path opacity="0.3" d="M186.2 324.19V270.21L139.45 243.22L92.71 270.21V324.19L139.45 351.18L186.2 324.19Z" stroke="white" stroke-miterlimit="10"/>
<path opacity="0.3" d="M560.16 216.23V162.26L513.42 135.27L466.67 162.26V216.23L513.42 243.22L560.16 216.23Z" stroke="white" stroke-miterlimit="10"/>
<path opacity="0.3" d="M466.67 378.17V324.19L419.93 297.2L373.18 324.19V378.17L419.93 405.16L466.67 378.17Z" stroke="white" stroke-miterlimit="10"/>
</g>
<path d="M700.53 513.26V459.29L653.78 432.3L607.03 459.29V513.26L653.78 540.25L700.53 513.26Z" stroke="white" stroke-miterlimit="10"/>
<path d="M607.03 459.29V405.32L560.29 378.33L513.54 405.32V459.29L560.29 486.28L607.03 459.29Z" stroke="white" stroke-miterlimit="10"/>
<path d="M560.29 485.94V431.97L513.54 404.98L466.8 431.97V485.94L513.54 512.93L560.29 485.94Z" stroke="white" stroke-miterlimit="10"/>
<path d="M513.54 459.29V405.32L466.8 378.33L420.05 405.32V459.29L466.8 486.28L513.54 459.29Z" stroke="white" stroke-miterlimit="10"/>
<path d="M560.29 539.92V485.94L513.54 458.96L466.8 485.94V539.92L513.54 566.91L560.29 539.92Z" stroke="white" stroke-miterlimit="10"/>
<path d="M747.27 378.65V324.67L700.53 297.69L653.78 324.67V378.65L700.53 405.64L747.27 378.65Z" stroke="white" stroke-miterlimit="10"/>
<path d="M700.53 405.32V351.34L653.78 324.35L607.03 351.34V405.32L653.78 432.31L700.53 405.32Z" stroke="white" stroke-miterlimit="10"/>
<path d="M653.78 377.99V324.01L607.03 297.03L560.29 324.01V377.99L607.03 404.98L653.78 377.99Z" stroke="white" stroke-miterlimit="10"/>
<path d="M653.78 485.94V431.97L607.03 404.98L560.29 431.97V485.94L607.03 512.93L653.78 485.94Z" stroke="white" stroke-miterlimit="10"/>
<path d="M840.76 485.94V431.97L794.02 404.98L747.27 431.97V485.94L794.02 512.93L840.76 485.94Z" stroke="white" stroke-miterlimit="10"/>
<path d="M794.02 513.26V459.29L747.27 432.3L700.53 459.29V513.26L747.27 540.25L794.02 513.26Z" stroke="white" stroke-miterlimit="10"/>
<path d="M92.7102 378.65V324.67L45.9602 297.69L-0.779785 324.67V378.65L45.9602 405.64L92.7102 378.65Z" stroke="white" stroke-miterlimit="10"/>
<path d="M45.9602 298.02V244.04L-0.779785 217.05L-47.5298 244.04V298.02L-0.779785 325L45.9602 298.02Z" stroke="white" stroke-miterlimit="10"/>
<path d="M92.7102 163.4V109.43L45.9602 82.4399L-0.779785 109.43V163.4L45.9602 190.39L92.7102 163.4Z" stroke="white" stroke-miterlimit="10"/>
<path d="M45.9602 190.07V136.09L-0.779785 109.1L-47.5298 136.09V190.07L-0.779785 217.06L45.9602 190.07Z" stroke="white" stroke-miterlimit="10"/>
<path d="M45.9602 405.97V351.99L-0.779785 325L-47.5298 351.99V405.97L-0.779785 432.96L45.9602 405.97Z" stroke="white" stroke-miterlimit="10"/>
<path d="M139.45 459.95V405.97L92.71 378.98L45.96 405.97V459.95L92.71 486.94L139.45 459.95Z" stroke="white" stroke-miterlimit="10"/>
<path d="M92.7102 486.61V432.63L45.9602 405.64L-0.779785 432.63V486.61L45.9602 513.59L92.7102 486.61Z" stroke="white" stroke-miterlimit="10"/>
<path d="M139.45 351.99V298.02L92.71 271.03L45.96 298.02V351.99L92.71 378.98L139.45 351.99Z" stroke="white" stroke-miterlimit="10"/>
<path d="M186.2 270.7V216.72L139.45 189.73L92.71 216.72V270.7L139.45 297.69L186.2 270.7Z" stroke="white" stroke-miterlimit="10"/>
<path d="M139.45 298.02V244.04L92.71 217.05L45.96 244.04V298.02L92.71 325L139.45 298.02Z" stroke="white" stroke-miterlimit="10"/>
<path d="M45.9602 459.95V405.97L-0.779785 378.98L-47.5298 405.97V459.95L-0.779785 486.94L45.9602 459.95Z" stroke="white" stroke-miterlimit="10"/>
</g>
<defs>
<clipPath id="clip0_240_1025">
<rect width="935" height="480" fill="white"/>
</clipPath>
</defs>
</svg>
