<svg width="32" height="32" viewBox="0 0 32 32" fill="none" xmlns="http://www.w3.org/2000/svg">
<mask id="mask0_244_1454" style="mask-type:alpha" maskUnits="userSpaceOnUse" x="0" y="0" width="32" height="32">
<circle cx="16" cy="16" r="16" fill="#C4C4C4"/>
</mask>
<g mask="url(#mask0_244_1454)">
<path d="M44.9996 -2H-8.40039V33.6H44.9996V-2Z" fill="#FFF7F7"/>
<path d="M-8.40039 -2V33.6H44.9996V-2H-8.40039ZM40.3052 0.927111C40.7505 1.21854 41.1436 1.58279 41.4681 2.0046H40.3052V0.927111ZM40.3052 2.40016H41.7434C42.1442 3.04635 42.386 3.77838 42.4491 4.53616H40.3052V2.40016ZM20.7916 0.927111C21.2369 1.21854 21.63 1.58279 21.9545 2.0046H20.7916V0.927111ZM20.7916 2.40016H22.2283C22.6296 3.04623 22.872 3.77826 22.9355 4.53616H20.7916V2.40016ZM3.42197 4.53616H1.27806V2.40016H2.71472C3.11603 3.04623 3.35841 3.77826 3.42197 4.53616ZM-1.00825 0.17872C-0.345531 0.212731 0.302066 0.389201 0.890419 0.696107V2.0046H-1.00825V0.17872ZM-1.4038 2.0046H-3.30247V0.654969C-2.71108 0.362045 -2.06346 0.20014 -1.4038 0.180302V2.0046ZM-1.4038 2.40016V4.53616H-3.30247V2.40016H-1.4038ZM-1.4038 4.93172V7.06772H-3.30247V4.93172H-1.4038ZM-1.4038 7.46327V9.59927H-3.30247V7.46327H-1.4038ZM-1.4038 9.99483V12.1435H-3.30247V9.99483H-1.4038ZM-1.00825 9.99483H0.890419V12.1435H-1.00825V9.99483ZM-1.00825 9.59927V7.46327H0.890419V9.59927H-1.00825ZM-1.00825 7.06772V4.93172H0.890419V7.06772H-1.00825ZM-1.00825 4.53616V2.40016H0.890419V4.53616H-1.00825ZM2.44891 2.0046H1.27806V0.927111C1.72313 1.21885 2.11621 1.58305 2.441 2.0046H2.44891ZM-3.70594 0.878062V2.0046H-4.94798C-4.6041 1.55836 -4.18353 1.17689 -3.70594 0.878062ZM-5.22329 2.40016H-3.70594V4.53616H-5.92896C-5.86594 3.77838 -5.6241 3.04635 -5.22329 2.40016ZM-5.94795 4.9507V4.93172H-3.70594V7.06772H-5.94795V4.9507ZM-5.94795 7.46327H-3.70594V9.59927H-5.94795V7.46327ZM-5.94795 9.99483H-3.70594V12.1435H-5.94795V9.99483ZM3.43938 12.1435H1.27806V9.99483H3.43938V12.1435ZM3.43938 9.59927H1.27806V7.46327H3.43938V9.59927ZM3.43938 7.06772H1.27806V4.93172H3.43938V7.06772ZM15.8076 12.1435H13.5656V9.99483H15.8076V12.1435ZM15.8076 9.59927H13.5656V7.46327H15.8076V9.59927ZM15.8076 7.06772H13.5656C13.5656 6.36205 13.5656 4.93805 13.5656 4.93172H15.8076V7.06772ZM15.8076 4.53616H13.5925C13.6561 3.77826 13.8984 3.04623 14.2998 2.40016H15.8076V4.53616ZM15.8076 2.0046H14.5656C14.9097 1.55861 15.3302 1.17719 15.8076 0.878062V2.0046ZM18.1018 12.1435H16.2032V9.99483H18.1018V12.1435ZM18.1018 9.59927H16.2032V7.46327H18.1018V9.59927ZM18.1018 7.06772H16.2032V4.93172H18.1018V7.06772ZM18.1018 4.53616H16.2032V2.40016H18.1018V4.53616ZM18.1018 2.0046H16.2032V0.654969C16.7946 0.362045 17.4422 0.20014 18.1018 0.180302V2.0046ZM20.3961 12.1435H18.4974V9.99483H20.3961V12.1435ZM20.3961 9.59927H18.4974V7.46327H20.3961V9.59927ZM20.3961 7.06772H18.4974V4.93172H20.3961V7.06772ZM20.3961 4.53616H18.4974V2.40016H20.3961V4.53616ZM20.3961 2.0046H18.4974V0.17872C19.1597 0.21057 19.8073 0.384886 20.3961 0.689778V2.0046ZM22.9545 12.1435H20.7916V9.99483H22.9545V12.1435ZM22.9545 9.59927H20.7916V7.46327H22.9545V9.59927ZM22.9545 7.06772H20.7916V4.93172H22.9529C22.9529 4.93172 22.9529 4.94437 22.9529 4.9507L22.9545 7.06772ZM35.3212 12.1435H33.0807V9.99483H35.3212V12.1435ZM35.3212 9.59927H33.0807V7.46327H35.3212V9.59927ZM35.3212 7.06772H33.0807V4.93172H35.3212V7.06772ZM35.3212 4.53616H33.0981C33.1617 3.77826 33.4041 3.04623 33.8054 2.40016H35.3212V4.53616ZM35.3212 2.0046H34.0791C34.4232 1.55809 34.8437 1.17613 35.3212 0.87648V2.0046ZM37.6154 12.1435H35.7167V9.99483H37.6154V12.1435ZM37.6154 9.59927H35.7167V7.46327H37.6154V9.59927ZM37.6154 7.06772H35.7167V4.93172H37.6154V7.06772ZM37.6154 4.53616H35.7167V2.40016H37.6154V4.53616ZM37.6154 2.0046H35.7167V0.654969C36.3085 0.363161 36.9559 0.201318 37.6154 0.180302V2.0046ZM39.9096 12.1435H38.0109V9.99483H39.9096V12.1435ZM39.9096 9.59927H38.0109V7.46327H39.9096V9.59927ZM39.9096 7.06772H38.0109V4.93172H39.9096V7.06772ZM39.9096 4.53616H38.0109V2.40016H39.9096V4.53616ZM39.9096 2.0046H38.0109V0.17872C38.6739 0.210985 39.3219 0.387555 39.9096 0.696107V2.0046ZM42.4681 12.1435H40.3052V9.99483H42.4681V12.1435ZM42.4681 9.59927H40.3052V7.46327H42.4681V9.59927ZM42.4681 7.06772H40.3052V4.93172H42.4681V7.06772Z" fill="#FFCFCF"/>
<path d="M14.477 33.5889H20.1587V33.6H44.9996V17.2604H43.8921V-2H43.5756V-1.2706L42.8525 -2H42.4063L43.3557 -1.05067H41.3209L42.2703 -2H41.8225L41.0931 -1.2706V-2H40.7767V17.2604H39.4808V14.1086H38.4334L37.6027 13.395H34.6914L33.8608 14.1086H32.8118V17.2604H30.5223V14.2969C30.5204 13.8842 30.3832 13.4835 30.1317 13.1562C29.8802 12.829 29.5283 12.5933 29.1299 12.4852V12.0501C29.1299 11.9633 29.0954 11.88 29.034 11.8185C28.9726 11.7571 28.8893 11.7226 28.8024 11.7226H28.7818V10.816C28.7818 10.774 28.7652 10.7338 28.7355 10.7041C28.7058 10.6744 28.6656 10.6578 28.6236 10.6578H22.9545C22.9125 10.6578 22.8723 10.6744 22.8426 10.7041C22.813 10.7338 22.7963 10.774 22.7963 10.816V11.7179H22.7694C22.6825 11.7179 22.5992 11.7524 22.5378 11.8138C22.4764 11.8752 22.4419 11.9585 22.4419 12.0454V12.4868C22.0487 12.5995 21.7028 12.837 21.4565 13.1635C21.2101 13.4901 21.0767 13.8879 21.0764 14.2969V17.262H20.8486C20.7572 17.2626 20.6669 17.2812 20.5828 17.3168C20.4986 17.3524 20.4223 17.4042 20.3582 17.4693C20.2942 17.5344 20.2436 17.6115 20.2093 17.6962C20.1751 17.7809 20.1579 17.8715 20.1587 17.9629V19.186H19.5258V-2H19.2094V-1.2706L18.4863 -2H18.0401L18.9895 -1.05067H16.9547L17.9041 -2H17.4563L16.7269 -1.2706V-2H16.4104V19.1844H14.477V15.4171C14.477 15.1208 14.3593 14.8367 14.1498 14.6272C13.9403 14.4177 13.6562 14.3001 13.3599 14.3001H13.0988C13.1281 14.2388 13.1433 14.1718 13.1431 14.1039V13.8222C13.1431 13.6963 13.0931 13.5756 13.0041 13.4866C12.9151 13.3976 12.7944 13.3476 12.6685 13.3476H12.352C12.3596 13.3284 12.3639 13.308 12.3647 13.2874V13.1023C12.3647 13.05 12.3441 12.9997 12.3074 12.9625C12.2707 12.9252 12.2208 12.9038 12.1685 12.903V12.8349C12.1685 12.8234 12.1641 12.8124 12.1561 12.8041C12.1481 12.7959 12.1373 12.791 12.1258 12.7906H11.9011C11.8896 12.791 11.8788 12.7959 11.8708 12.8041C11.8628 12.8124 11.8584 12.8234 11.8584 12.8349V12.903H11.7002V12.8349C11.7002 12.8234 11.6957 12.8124 11.6877 12.8041C11.6798 12.7959 11.6689 12.791 11.6574 12.7906H11.4328C11.4213 12.791 11.4104 12.7959 11.4025 12.8041C11.3945 12.8124 11.39 12.8234 11.39 12.8349V12.903H11.2318V12.8349C11.2318 12.8234 11.2274 12.8124 11.2194 12.8041C11.2114 12.7959 11.2006 12.791 11.1891 12.7906H10.9644C10.953 12.791 10.9421 12.7959 10.9341 12.8041C10.9261 12.8124 10.9217 12.8234 10.9217 12.8349V12.903C10.8953 12.9027 10.8691 12.9077 10.8447 12.9176C10.8202 12.9275 10.798 12.9422 10.7792 12.9607C10.7603 12.9792 10.7454 13.0012 10.7351 13.0255C10.7248 13.0498 10.7194 13.0759 10.7192 13.1023V13.2953C10.72 13.3159 10.7243 13.3363 10.7318 13.3555H10.4154C10.2895 13.3555 10.1688 13.4055 10.0798 13.4945C9.99074 13.5835 9.94073 13.7042 9.94073 13.8301V14.1054C9.94059 14.1733 9.95573 14.2404 9.98503 14.3016H8.52306C8.55236 14.2404 8.5675 14.1733 8.56736 14.1054V13.8222C8.56736 13.6963 8.51735 13.5756 8.42834 13.4866C8.33932 13.3976 8.21858 13.3476 8.09269 13.3476H7.77625C7.78379 13.3284 7.78807 13.308 7.78891 13.2874V13.1023C7.78894 13.0753 7.78349 13.0486 7.77288 13.0238C7.76227 12.9989 7.74673 12.9765 7.7272 12.9579C7.70767 12.9392 7.68456 12.9248 7.65926 12.9153C7.63397 12.9059 7.60702 12.9017 7.58005 12.903V12.8349C7.58006 12.8234 7.57561 12.8124 7.56764 12.8041C7.55967 12.7959 7.54881 12.791 7.53734 12.7906H7.30949C7.29802 12.791 7.28716 12.7959 7.27919 12.8041C7.27122 12.8124 7.26677 12.8234 7.26677 12.8349V12.903H7.10539V12.8349C7.1054 12.8234 7.10095 12.8124 7.09298 12.8041C7.08501 12.7959 7.07414 12.791 7.06267 12.7906H6.83483C6.82335 12.791 6.81249 12.7959 6.80452 12.8041C6.79655 12.8124 6.7921 12.8234 6.79211 12.8349V12.903H6.63072V12.8349C6.63073 12.8234 6.62628 12.8124 6.61831 12.8041C6.61034 12.7959 6.59947 12.791 6.588 12.7906H6.36016C6.34869 12.791 6.33782 12.7959 6.32985 12.8041C6.32188 12.8124 6.31743 12.8234 6.31744 12.8349V12.903C6.29105 12.9027 6.26488 12.9077 6.24042 12.9176C6.21596 12.9275 6.19369 12.9422 6.17489 12.9607C6.15608 12.9792 6.14111 13.0012 6.13082 13.0255C6.12053 13.0498 6.11512 13.0759 6.11492 13.1023V13.2953C6.11576 13.3159 6.12004 13.3363 6.12757 13.3555H5.81113C5.68524 13.3555 5.56451 13.4055 5.47549 13.4945C5.38647 13.5835 5.33646 13.7042 5.33646 13.8301V14.1054C5.33633 14.1733 5.35147 14.2404 5.38076 14.3016H3.87449V13.0311H2.32391V14.2969H1.84925V13.0311H0.301832V14.2969H-0.172834V13.0311H-1.72341V14.2969H-2.19808V13.0311H-3.75499V14.2969H-4.35939V-2H-4.67584V-1.2706L-5.40524 -2H-5.85143L-4.9021 -1.05067H-6.93684L-5.9875 -2H-6.43211L-7.16151 -1.2706V-2H-7.47796V14.2969H-8.40039V33.5889H14.477ZM43.3588 2.07106L42.3399 3.09001L41.3209 2.07106H43.3588ZM41.3209 1.75461L42.3399 0.735662L43.3588 1.75461H41.3209ZM43.3588 4.55515H41.3209L42.3399 3.53778L43.3588 4.55515ZM43.3588 4.87159L42.3399 5.89054L41.3209 4.87159H43.3588ZM43.3209 7.31929H41.3573L42.3399 6.33831L43.3209 7.31929ZM43.3209 7.67371L42.3399 8.65468L41.3573 7.67371H43.3209ZM43.3588 10.1214H41.3209L42.3399 9.10245L43.3588 10.1214ZM43.3588 10.4378L42.3399 11.4568L41.3209 10.4378H43.3588ZM43.3588 12.9235H41.3209L42.3399 11.9046L43.3588 12.9235ZM43.3588 13.24L42.3399 14.2589L41.3209 13.24H43.3588ZM43.3588 15.7241H41.3209L42.3399 14.7051L43.3588 15.7241ZM43.3588 16.0405L42.3399 17.0595L41.3209 16.0373L43.3588 16.0405ZM43.5819 17.2604H42.5867L43.5819 16.2652V17.2604ZM43.5819 15.501L42.563 14.482L43.5819 13.4631V15.501ZM43.5819 12.6988L42.563 11.6799L43.5819 10.6578V12.6988ZM43.5819 9.89831L42.563 8.87936L43.5819 7.86041V9.89831ZM43.5819 7.13417L42.563 6.11522L43.5819 5.09627V7.13417ZM43.5819 4.33205L42.563 3.3131L43.5819 2.29415V4.33205ZM43.5819 -0.507964V1.52994L42.563 0.510987L43.5819 -0.507964ZM43.3588 -0.734222L42.3399 0.284729L41.3209 -0.734222H43.3588ZM41.0963 -0.511129L42.1152 0.507822L41.0963 1.52677V-0.511129ZM41.0963 2.29099L42.1152 3.30994L41.0963 4.32889V2.29099ZM41.0963 5.0931L42.1152 6.11205L41.0963 7.131V5.0931ZM41.0963 7.85724L42.1152 8.8762L41.0963 9.89515V7.85724ZM41.0963 10.6578L42.1152 11.6767L41.0963 12.6957V10.6578ZM41.0963 13.4599L42.1152 14.4788L41.0963 15.4978V13.4599ZM41.0963 16.262L42.0931 17.2572H41.0963V16.262ZM39.6612 17.8047H40.1153V21.4802H39.6612V17.8047ZM38.7119 17.8047H39.1644V21.4802H38.7119V17.8047ZM37.7625 17.8047H38.215V21.4802H37.7625V17.8047ZM36.8132 17.8047H37.2673V21.4802H36.8132V17.8047ZM35.8639 17.8047H36.3164V21.4802H35.8544L35.8639 17.8047ZM34.9145 17.8047H35.367V21.4802H34.9145V17.8047ZM33.9652 17.8047H34.4193V21.4802H33.9652V17.8047ZM33.0159 17.8047H33.4684V21.4802H33.0159V17.8047ZM32.0665 17.8047H32.519V21.4802H32.0665V17.8047ZM31.1172 17.8047H31.5713V21.4802H31.1172V17.8047ZM23.1127 10.9742H28.4654V11.7179C28.422 11.7174 28.379 11.7256 28.3388 11.7419C28.2986 11.7581 28.2621 11.7821 28.2312 11.8126C28.2003 11.843 28.1758 11.8792 28.1589 11.9192C28.1421 11.9592 28.1333 12.002 28.1331 12.0454V12.4868C27.7408 12.6003 27.396 12.8382 27.1506 13.1647C26.9051 13.4911 26.7724 13.8885 26.7724 14.2969V17.262H24.8263V14.2969C24.8244 13.8842 24.6872 13.4835 24.4357 13.1562C24.1842 12.829 23.8323 12.5933 23.4339 12.4852V12.0501C23.4339 11.9635 23.3996 11.8805 23.3386 11.8191C23.2775 11.7577 23.1946 11.723 23.108 11.7226L23.1127 10.9742ZM19.2157 18.2967L18.1968 17.2794L19.2157 16.2604V18.2967ZM18.9926 2.07106L17.9737 3.09001L16.9547 2.07106H18.9926ZM16.9547 1.75461L17.9737 0.735662L18.9926 1.75461H16.9547ZM18.9926 4.55515H16.9547L17.9737 3.53778L18.9926 4.55515ZM18.9926 4.87159L17.9737 5.89054L16.9547 4.87159H18.9926ZM18.9547 7.31929H16.9911L17.9737 6.33831L18.9547 7.31929ZM18.9547 7.67371L17.9737 8.65468L16.9911 7.67371H18.9547ZM18.9926 10.1214H16.9547L17.9737 9.10245L18.9926 10.1214ZM18.9926 10.4378L17.9737 11.4568L16.9547 10.4378H18.9926ZM18.9926 12.9235H16.9547L17.9737 11.9046L18.9926 12.9235ZM18.9926 13.24L17.9737 14.2589L16.9547 13.24H18.9926ZM18.9926 15.7241H16.9547L17.9737 14.7051L18.9926 15.7241ZM18.9926 16.0405L17.9737 17.0595L16.9547 16.0373L18.9926 16.0405ZM18.9926 18.5262H16.9547L17.9737 17.5072L18.9926 18.5262ZM19.2157 15.501L18.1968 14.482L19.2157 13.4631V15.501ZM19.2157 12.6988L18.1968 11.6799L19.2157 10.6578V12.6988ZM19.2157 9.89831L18.1968 8.87936L19.2157 7.86041V9.89831ZM19.2157 7.13417L18.1968 6.11522L19.2157 5.09627V7.13417ZM19.2157 4.33205L18.1968 3.3131L19.2157 2.29415V4.33205ZM19.2157 -0.507964V1.52994L18.1968 0.510987L19.2157 -0.507964ZM18.9926 -0.734222L17.9737 0.284729L16.9547 -0.734222H18.9926ZM16.73 -0.511129L17.749 0.507822L16.73 1.52677V-0.511129ZM16.73 2.29099L17.749 3.30994L16.73 4.32889V2.29099ZM16.73 5.0931L17.749 6.11205L16.73 7.131V5.0931ZM16.73 7.85724L17.749 8.8762L16.73 9.89515V7.85724ZM16.73 10.6578L17.749 11.6767L16.73 12.6957V10.6578ZM16.73 13.4599L17.749 14.4788L16.73 15.4978V13.4599ZM16.73 16.262L17.749 17.281L16.73 18.2983V16.262ZM16.73 18.8395H19.2157V19.1812H16.73V18.8395ZM-4.89893 -0.734222L-5.91788 0.284729L-6.93684 -0.734222H-4.89893ZM-6.93684 10.4378H-4.89893L-5.91788 11.4568L-6.93684 10.4378ZM-4.89893 12.9235H-6.93684L-5.91788 11.9046L-4.89893 12.9235ZM-6.93684 10.1214L-5.91788 9.10245L-4.89893 10.1214H-6.93684ZM-6.90044 7.67371H-4.93691L-5.91788 8.65468L-6.90044 7.67371ZM-6.90044 7.31929L-5.91788 6.33831L-4.93691 7.31929H-6.90044ZM-6.93684 4.87159H-4.89893L-5.91788 5.89054L-6.93684 4.87159ZM-6.93684 4.55515L-5.91788 3.53778L-4.89893 4.55673L-6.93684 4.55515ZM-6.93684 2.07106H-4.89893L-5.91788 3.09001L-6.93684 2.07106ZM-6.93684 1.75461L-5.91788 0.735662L-4.89893 1.75461H-6.93684ZM-7.16151 -0.507964L-6.14256 0.510987L-7.16151 1.52994V-0.507964ZM-7.16151 2.29415L-6.14256 3.3131L-7.16151 4.32889V2.29415ZM-7.16151 5.09627L-6.14256 6.11522L-7.16151 7.13417V5.09627ZM-7.16151 7.86041L-6.14256 8.87936L-7.16151 9.89831V7.86041ZM-7.16151 10.6609L-6.14256 11.6799L-7.16151 12.6988V10.6609ZM-7.16151 14.3001V13.4631L-6.32452 14.2969L-7.16151 14.3001ZM-6.93684 13.24H-4.89893L-5.91788 14.2589L-6.93684 13.24ZM-4.67584 14.2969H-5.51284L-4.67584 13.4599V14.2969ZM-4.67584 12.6957L-5.69479 11.6799L-4.67584 10.6578V12.6957ZM-4.67584 9.89515L-5.69479 8.87936L-4.67584 7.86041V9.89515ZM-4.67584 7.131L-5.69479 6.11522L-4.67584 5.09627V7.131ZM-4.67584 4.32889L-5.69479 3.3131L-4.67584 2.29415V4.32889ZM-4.67584 1.52677L-5.69479 0.510987L-4.67584 -0.507964V1.52677ZM-1.30571 19.1812H-1.53038V18.9708H-1.30571V19.1812ZM-1.30571 18.8917H-1.53038V18.6543H-1.30571V18.8917ZM-1.30571 18.5752H-1.53038V18.3379H-1.30571V18.5752ZM-1.30571 18.2588H-1.53038V18.0214H-1.30571V18.2588ZM-1.30571 17.9423H-1.53038V17.705H-1.30571V17.9423ZM-1.30571 17.6259H-1.53038V17.3886H-1.30571V17.6259ZM-1.30571 17.3094H-1.53038V17.1449H-1.30571V17.3094ZM-0.989262 19.1812H-1.22659V18.9708H-0.989262V19.1812ZM-0.989262 18.8917H-1.22659V18.6543H-0.989262V18.8917ZM-0.989262 18.5752H-1.22659V18.3379H-0.989262V18.5752ZM-0.989262 18.2588H-1.22659V18.0214H-0.989262V18.2588ZM-0.989262 17.9423H-1.22659V17.705H-0.989262V17.9423ZM-0.989262 17.6259H-1.22659V17.3886H-0.989262V17.6259ZM-0.989262 17.3094H-1.22659V17.1449H-0.989262V17.3094ZM-0.672817 19.1812H-0.910151V18.9708H-0.672817V19.1812ZM-0.672817 18.8917H-0.910151V18.6543H-0.672817V18.8917ZM-0.672817 18.5752H-0.910151V18.3379H-0.672817V18.5752ZM-0.672817 18.2588H-0.910151V18.0214H-0.672817V18.2588ZM-0.672817 17.9423H-0.910151V17.705H-0.672817V17.9423ZM-0.672817 17.6259H-0.910151V17.3886H-0.672817V17.6259ZM-0.672817 17.3094H-0.910151V17.1449H-0.672817V17.3094ZM-0.356373 19.1812H-0.593706V18.9708H-0.356373V19.1812ZM-0.356373 18.8917H-0.593706V18.6543H-0.356373V18.8917ZM-0.356373 18.5752H-0.593706V18.3379H-0.356373V18.5752ZM-0.356373 18.2588H-0.593706V18.0214H-0.356373V18.2588ZM-0.356373 17.9423H-0.593706V17.705H-0.356373V17.9423ZM-0.356373 17.6259H-0.593706V17.3886H-0.356373V17.6259ZM-0.356373 17.3094H-0.593706V17.1449H-0.356373V17.3094ZM-0.0399284 19.1812H-0.277262V18.9708H-0.0399284V19.1812ZM-0.0399284 18.8917H-0.277262V18.6543H-0.0399284V18.8917ZM-0.0399284 18.5752H-0.277262V18.3379H-0.0399284V18.5752ZM-0.0399284 18.2588H-0.277262V18.0214H-0.0399284V18.2588ZM-0.0399284 17.9423H-0.277262V17.705H-0.0399284V17.9423ZM-0.0399284 17.6259H-0.277262V17.3886H-0.0399284V17.6259ZM-0.0399284 17.3094H-0.277262V17.1449H-0.0399284V17.3094ZM0.276516 19.1812H0.0391827V18.9708H0.276516V19.1812ZM0.276516 18.8917H0.0391827V18.6543H0.276516V18.8917ZM0.276516 18.5752H0.0391827V18.3379H0.276516V18.5752ZM0.276516 18.2588H0.0391827V18.0214H0.276516V18.2588ZM0.276516 17.9423H0.0391827V17.705H0.276516V17.9423ZM0.276516 17.6259H0.0391827V17.3886H0.276516V17.6259ZM0.276516 17.3094H0.0391827V17.1449H0.276516V17.3094ZM0.592961 19.1812H0.355627V18.9708H0.592961V19.1812ZM0.592961 18.8917H0.355627V18.6543H0.592961V18.8917ZM0.592961 18.5752H0.355627V18.3379H0.592961V18.5752ZM0.592961 18.2588H0.355627V18.0214H0.592961V18.2588ZM0.592961 17.9423H0.355627V17.705H0.592961V17.9423ZM0.592961 17.6259H0.355627V17.3886H0.592961V17.6259ZM0.592961 17.3094H0.355627V17.1449H0.592961V17.3094ZM0.909406 19.1812H0.672072V18.9708H0.909406V19.1812ZM0.909406 18.8917H0.672072V18.6543H0.909406V18.8917ZM0.909406 18.5752H0.672072V18.3379H0.909406V18.5752ZM0.909406 18.2588H0.672072V18.0214H0.909406V18.2588ZM0.909406 17.9423H0.672072V17.705H0.909406V17.9423ZM0.909406 17.6259H0.672072V17.3886H0.909406V17.6259ZM0.909406 17.3094H0.672072V17.1449H0.909406V17.3094ZM1.22585 19.1812H0.988517V18.9708H1.22585V19.1812ZM1.22585 18.8917H0.988517V18.6543H1.22585V18.8917ZM1.22585 18.5752H0.988517V18.3379H1.22585V18.5752ZM1.22585 18.2588H0.988517V18.0214H1.22585V18.2588ZM1.22585 17.9423H0.988517V17.705H1.22585V17.9423ZM1.22585 17.6259H0.988517V17.3886H1.22585V17.6259ZM1.22585 17.3094H0.988517V17.1449H1.22585V17.3094ZM1.54229 19.1812H1.30496V18.9708H1.54229V19.1812ZM1.54229 18.8917H1.30496V18.6543H1.54229V18.8917ZM1.54229 18.5752H1.30496V18.3379H1.54229V18.5752ZM1.54229 18.2588H1.30496V18.0214H1.54229V18.2588ZM1.54229 17.9423H1.30496V17.705H1.54229V17.9423ZM1.54229 17.6259H1.30496V17.3886H1.54229V17.6259ZM1.54229 17.3094H1.30496V17.1449H1.54229V17.3094ZM1.85874 19.1812H1.62141V18.9708H1.85874V19.1812ZM1.85874 18.8917H1.62141V18.6543H1.85874V18.8917ZM1.85874 18.5752H1.62141V18.3379H1.85874V18.5752ZM1.85874 18.2588H1.62141V18.0214H1.85874V18.2588ZM1.85874 17.9423H1.62141V17.705H1.85874V17.9423ZM1.85874 17.6259H1.62141V17.3886H1.85874V17.6259ZM1.85874 17.3094H1.62141V17.1449H1.85874V17.3094ZM2.17518 19.1812H1.93785V18.9708H2.17518V19.1812ZM2.17518 18.8917H1.93785V18.6543H2.17518V18.8917ZM2.17518 18.5752H1.93785V18.3379H2.17518V18.5752ZM2.17518 18.2588H1.93785V18.0214H2.17518V18.2588ZM2.17518 17.9423H1.93785V17.705H2.17518V17.9423ZM2.17518 17.6259H1.93785V17.3886H2.17518V17.6259ZM2.17518 17.3094H1.93785V17.1449H2.17518V17.3094ZM2.49163 19.1812H2.25429V18.9708H2.49163V19.1812ZM2.49163 18.8917H2.25429V18.6543H2.49163V18.8917ZM2.49163 18.5752H2.25429V18.3379H2.49163V18.5752ZM2.49163 18.2588H2.25429V18.0214H2.49163V18.2588ZM2.49163 17.9423H2.25429V17.705H2.49163V17.9423ZM2.49163 17.6259H2.25429V17.3886H2.49163V17.6259ZM2.49163 17.3094H2.25429V17.1449H2.49163V17.3094ZM2.80807 19.1812H2.57074V18.9708H2.80807V19.1812ZM2.80807 18.8917H2.57074V18.6543H2.80807V18.8917ZM2.80807 18.5752H2.57074V18.3379H2.80807V18.5752ZM2.80807 18.2588H2.57074V18.0214H2.80807V18.2588ZM2.80807 17.9423H2.57074V17.705H2.80807V17.9423ZM2.80807 17.6259H2.57074V17.3886H2.80807V17.6259ZM2.80807 17.3094H2.57074V17.1449H2.80807V17.3094ZM3.12452 19.1812H2.88718V18.9708H3.12452V19.1812ZM3.12452 18.8917H2.88718V18.6543H3.12452V18.8917ZM3.12452 18.5752H2.88718V18.3379H3.12452V18.5752ZM3.12452 18.2588H2.88718V18.0214H3.12452V18.2588ZM3.12452 17.9423H2.88718V17.705H3.12452V17.9423ZM3.12452 17.6259H2.88718V17.3886H3.12452V17.6259ZM3.12452 17.3094H2.88718V17.1449H3.12452V17.3094ZM3.44096 19.1812H3.20363V18.9708H3.44096V19.1812ZM3.44096 18.8917H3.20363V18.6543H3.44096V18.8917ZM3.44096 18.5752H3.20363V18.3379H3.44096V18.5752ZM3.44096 18.2588H3.20363V18.0214H3.44096V18.2588ZM3.44096 17.9423H3.20363V17.705H3.44096V17.9423ZM3.44096 17.6259H3.20363V17.3886H3.44096V17.6259ZM3.44096 17.3094H3.20363V17.1449H3.44096V17.3094ZM3.75741 19.1812H3.52007V18.9708H3.75741V19.1812ZM3.75741 18.8917H3.52007V18.6543H3.75741V18.8917ZM3.75741 18.5752H3.52007V18.3379H3.75741V18.5752ZM3.75741 18.2588H3.52007V18.0214H3.75741V18.2588ZM3.75741 17.9423H3.52007V17.705H3.75741V17.9423ZM3.75741 17.6259H3.52007V17.3886H3.75741V17.6259ZM3.75741 17.3094H3.52007V17.1449H3.75741V17.3094ZM4.07385 19.1812H3.83652V18.9708H4.07385V19.1812ZM4.07385 18.8917H3.83652V18.6543H4.07385V18.8917ZM4.07385 18.5752H3.83652V18.3379H4.07385V18.5752ZM4.07385 18.2588H3.83652V18.0214H4.07385V18.2588ZM4.07385 17.9423H3.83652V17.705H4.07385V17.9423ZM4.07385 17.6259H3.83652V17.3886H4.07385V17.6259ZM4.07385 17.3094H3.83652V17.1449H4.07385V17.3094ZM4.39029 19.1812H4.15296V18.9708H4.39029V19.1812ZM4.39029 18.8917H4.15296V18.6543H4.39029V18.8917ZM4.39029 18.5752H4.15296V18.3379H4.39029V18.5752ZM4.39029 18.2588H4.15296V18.0214H4.39029V18.2588ZM4.39029 17.9423H4.15296V17.705H4.39029V17.9423ZM4.39029 17.6259H4.15296V17.3886H4.39029V17.6259ZM4.39029 17.3094H4.15296V17.1449H4.39029V17.3094ZM4.70674 19.1812H4.46941V18.9708H4.70674V19.1812ZM4.70674 18.8917H4.46941V18.6543H4.70674V18.8917ZM4.70674 18.5752H4.46941V18.3379H4.70674V18.5752ZM4.70674 18.2588H4.46941V18.0214H4.70674V18.2588ZM4.70674 17.9423H4.46941V17.705H4.70674V17.9423ZM4.70674 17.6259H4.46941V17.3886H4.70674V17.6259ZM4.70674 17.3094H4.46941V17.1449H4.70674V17.3094ZM5.02318 19.1812H4.78585V18.9708H5.02318V19.1812ZM5.02318 18.8917H4.78585V18.6543H5.02318V18.8917ZM5.02318 18.5752H4.78585V18.3379H5.02318V18.5752ZM5.02318 18.2588H4.78585V18.0214H5.02318V18.2588ZM5.02318 17.9423H4.78585V17.705H5.02318V17.9423ZM5.02318 17.6259H4.78585V17.3886H5.02318V17.6259ZM5.02318 17.3094H4.78585V17.1449H5.02318V17.3094ZM5.33963 19.1812H5.10229V18.9708H5.33963V19.1812ZM5.33963 18.8917H5.10229V18.6543H5.33963V18.8917ZM5.33963 18.5752H5.10229V18.3379H5.33963V18.5752ZM5.33963 18.2588H5.10229V18.0214H5.33963V18.2588ZM5.33963 17.9423H5.10229V17.705H5.33963V17.9423ZM5.33963 17.6259H5.10229V17.3886H5.33963V17.6259ZM5.33963 17.3094H5.10229V17.1449H5.33963V17.3094ZM5.65607 19.1812H5.41874V18.9708H5.66082L5.65607 19.1812ZM5.65607 18.8917H5.41874V18.6543H5.66082L5.65607 18.8917ZM5.65607 18.5752H5.41874V18.3379H5.66082L5.65607 18.5752ZM5.65607 18.2588H5.41874V18.0214H5.66082L5.65607 18.2588ZM5.65607 17.9423H5.41874V17.705H5.66082L5.65607 17.9423ZM5.65607 17.6259H5.41874V17.3886H5.66082L5.65607 17.6259ZM5.65607 17.3094H5.41874V17.1449H5.66082L5.65607 17.3094ZM5.65607 16.5452H5.36494V16.1702C5.36494 16.1493 5.35661 16.1291 5.34177 16.1143C5.32694 16.0995 5.30681 16.0911 5.28583 16.0911C5.26485 16.0911 5.24473 16.0995 5.22989 16.1143C5.21506 16.1291 5.20672 16.1493 5.20672 16.1702V16.5452H4.63554V16.1702C4.63554 16.1493 4.6272 16.1291 4.61237 16.1143C4.59753 16.0995 4.57741 16.0911 4.55643 16.0911C4.53545 16.0911 4.51532 16.0995 4.50049 16.1143C4.48565 16.1291 4.47732 16.1493 4.47732 16.1702V16.5452H3.91088V16.1702C3.91088 16.1493 3.90255 16.1291 3.88771 16.1143C3.87287 16.0995 3.85275 16.0911 3.83177 16.0911C3.81079 16.0911 3.79067 16.0995 3.77583 16.1143C3.76099 16.1291 3.75266 16.1493 3.75266 16.1702V16.5452H3.18622V16.1702C3.18622 16.1493 3.17789 16.1291 3.16305 16.1143C3.14822 16.0995 3.12809 16.0911 3.10711 16.0911C3.08613 16.0911 3.06601 16.0995 3.05117 16.1143C3.03634 16.1291 3.028 16.1493 3.028 16.1702V16.5452H2.46157V16.1702C2.46157 16.1493 2.45323 16.1291 2.43839 16.1143C2.42356 16.0995 2.40344 16.0911 2.38245 16.0911C2.36147 16.0911 2.34135 16.0995 2.32651 16.1143C2.31168 16.1291 2.30334 16.1493 2.30334 16.1702V16.5452H1.73691V16.1702C1.73691 16.1493 1.72857 16.1291 1.71374 16.1143C1.6989 16.0995 1.67878 16.0911 1.6578 16.0911C1.63682 16.0911 1.61669 16.0995 1.60186 16.1143C1.58702 16.1291 1.57868 16.1493 1.57868 16.1702V16.5452H1.01225V16.1702C1.01225 16.1493 1.00391 16.1291 0.989079 16.1143C0.974242 16.0995 0.954121 16.0911 0.933139 16.0911C0.912157 16.0911 0.892035 16.0995 0.877199 16.1143C0.862363 16.1291 0.854028 16.1493 0.854028 16.1702V16.5452H0.287592V16.1702C0.287592 16.1493 0.279257 16.1291 0.264421 16.1143C0.249584 16.0995 0.229463 16.0911 0.208481 16.0911C0.187499 16.0911 0.167377 16.0995 0.152541 16.1143C0.137705 16.1291 0.12937 16.1493 0.12937 16.1702V16.5452H-0.437066V16.1702C-0.437066 16.1493 -0.445401 16.1291 -0.460237 16.1143C-0.475073 16.0995 -0.495195 16.0911 -0.516177 16.0911C-0.537158 16.0911 -0.557281 16.0995 -0.572117 16.1143C-0.586953 16.1291 -0.595288 16.1493 -0.595288 16.1702V16.5452H-1.16172V16.1702C-1.16172 16.1493 -1.17006 16.1291 -1.18489 16.1143C-1.19973 16.0995 -1.21985 16.0911 -1.24083 16.0911C-1.26182 16.0911 -1.28194 16.0995 -1.29677 16.1143C-1.31161 16.1291 -1.31995 16.1493 -1.31995 16.1702V16.5452H-1.53038V15.7209H5.66082L5.65607 16.5452Z" fill="#FFB1B1"/>
<path d="M35.3575 14.4026C35.3575 14.3682 35.3439 14.3352 35.3195 14.3108C35.2952 14.2865 35.2622 14.2728 35.2278 14.2728H34.6361C34.6016 14.2728 34.5686 14.2865 34.5443 14.3108C34.52 14.3352 34.5063 14.3682 34.5063 14.4026V14.5608H31.9273V14.3519H32.057C32.0768 14.3519 32.0957 14.3441 32.1096 14.3301C32.1236 14.3162 32.1314 14.2973 32.1314 14.2776C32.1314 14.2578 32.1236 14.2389 32.1096 14.225C32.0957 14.211 32.0768 14.2032 32.057 14.2032H31.9273V14.1241C32.0662 14.0948 32.1894 14.015 32.2729 13.9002C32.3565 13.7854 32.3946 13.6437 32.3799 13.5025C32.3651 13.3613 32.2986 13.2305 32.1931 13.1354C32.0876 13.0404 31.9506 12.9878 31.8086 12.9878C31.6666 12.9878 31.5297 13.0404 31.4242 13.1354C31.3187 13.2305 31.2521 13.3613 31.2374 13.5025C31.2226 13.6437 31.2607 13.7854 31.3443 13.9002C31.4279 14.015 31.551 14.0948 31.69 14.1241V14.2032H31.5618C31.5421 14.2032 31.5232 14.211 31.5092 14.225C31.4953 14.2389 31.4874 14.2578 31.4874 14.2776C31.4874 14.2973 31.4953 14.3162 31.5092 14.3301C31.5232 14.3441 31.5421 14.3519 31.5618 14.3519H31.69V14.5608H20.491C20.0108 14.5593 19.5352 14.6532 19.0916 14.8371C18.6481 15.021 18.2455 15.2912 17.9072 15.6319C17.2251 16.3193 16.8404 17.2473 16.8361 18.2157V18.8059H5.72569C5.48145 18.8055 5.23974 18.7563 5.01477 18.6612C4.7898 18.5661 4.5861 18.427 4.41561 18.2521C4.09943 17.9304 3.90911 17.506 3.87924 17.0559V16.1224H4.05961C4.09402 16.1224 4.12702 16.1088 4.15135 16.0844C4.17568 16.0601 4.18935 16.0271 4.18935 15.9927V15.4041C4.18935 15.3697 4.17568 15.3367 4.15135 15.3124C4.12702 15.288 4.09402 15.2744 4.05961 15.2744H3.88557V14.8408C3.88457 14.8128 3.88193 14.7848 3.87765 14.757C3.87843 14.7422 3.87843 14.7274 3.87765 14.7127C3.87343 13.7556 3.49328 12.8384 2.81915 12.159C2.48517 11.823 2.08799 11.5565 1.6505 11.3749C1.21302 11.1932 0.743894 11.0999 0.270187 11.1005H-2.10315V10.9422C-2.10356 10.9077 -2.11758 10.8747 -2.14217 10.8504C-2.16675 10.8261 -2.19991 10.8125 -2.23447 10.8125H-2.83413C-2.86854 10.8125 -2.90154 10.8262 -2.92587 10.8505C-2.95021 10.8748 -2.96387 10.9078 -2.96387 10.9422V11.1005H-8.40039V12.5245H-2.96387V12.6827C-2.96387 12.7171 -2.95021 12.7501 -2.92587 12.7744C-2.90154 12.7988 -2.86854 12.8124 -2.83413 12.8124H-2.23922C-2.20466 12.8124 -2.17149 12.7988 -2.14691 12.7745C-2.12233 12.7502 -2.10831 12.7172 -2.10789 12.6827V12.5245H0.265441C0.303414 12.5245 0.34297 12.5245 0.380943 12.5245V12.9517H0.252783C0.23306 12.9517 0.214146 12.9595 0.200199 12.9734C0.186254 12.9874 0.178419 13.0063 0.178419 13.026C0.178419 13.0458 0.186254 13.0647 0.200199 13.0786C0.214146 13.0926 0.23306 13.1004 0.252783 13.1004H0.380943V13.189C0.241581 13.2183 0.118034 13.2983 0.0341587 13.4134C-0.0497179 13.5285 -0.0879726 13.6706 -0.0732212 13.8122C-0.0584698 13.9539 0.00824261 14.085 0.114034 14.1804C0.219825 14.2757 0.357192 14.3285 0.49961 14.3285C0.642027 14.3285 0.779394 14.2757 0.885186 14.1804C0.990977 14.085 1.05769 13.9539 1.07244 13.8122C1.08719 13.6706 1.04894 13.5285 0.965061 13.4134C0.881186 13.2983 0.757638 13.2183 0.618277 13.189V13.1099H0.746437C0.756203 13.1099 0.765872 13.108 0.774895 13.1042C0.783916 13.1005 0.792115 13.095 0.79902 13.0881C0.805925 13.0812 0.811403 13.073 0.815141 13.064C0.818877 13.055 0.820801 13.0453 0.820801 13.0355C0.820801 13.0258 0.818877 13.0161 0.815141 13.0071C0.811403 12.998 0.805925 12.9898 0.79902 12.9829C0.792115 12.976 0.783916 12.9706 0.774895 12.9668C0.765872 12.9631 0.756203 12.9612 0.746437 12.9612H0.618277V12.5561C1.07067 12.6283 1.48873 12.8415 1.81285 13.1653C2.21488 13.5805 2.44153 14.1347 2.44574 14.7127C2.44681 14.7413 2.44945 14.7698 2.45365 14.7981C2.45365 14.8124 2.45365 14.8266 2.45365 14.8408V15.2744H2.33024C2.29583 15.2744 2.26283 15.288 2.2385 15.3124C2.21417 15.3367 2.2005 15.3697 2.2005 15.4041V15.999C2.2005 16.0334 2.21417 16.0664 2.2385 16.0908C2.26283 16.1151 2.29583 16.1288 2.33024 16.1288H2.45365V16.9199C2.45365 16.9341 2.45365 16.9484 2.45365 16.961C2.45365 17.0037 2.45365 17.0544 2.45365 17.1097V17.1446C2.45527 17.1732 2.45844 17.2017 2.46315 17.23C2.46315 17.2474 2.46315 17.2632 2.46315 17.2822C2.53901 18.0329 2.87087 18.7346 3.40299 19.2695C3.7056 19.5739 4.06558 19.8152 4.46211 19.9795C4.85863 20.1438 5.28381 20.2279 5.71303 20.2267H16.8361V21.0273H16.5433C16.5075 21.0273 16.4732 21.0414 16.4477 21.0666C16.4222 21.0918 16.4077 21.126 16.4073 21.1618V21.4783H0.368285V18.2806C0.359585 17.9707 0.228524 17.6769 0.00376987 17.4634C-0.220984 17.2499 -0.521138 17.1342 -0.831039 17.1414H-2.09682L-3.26766 16.1303V15.162C-3.26766 15.141 -3.276 15.1209 -3.29083 15.1061C-3.30567 15.0913 -3.32579 15.0829 -3.34677 15.0829H-8.40039V15.2411H-8.17097V16.1256H-8.40039V33.5997H2.77326V26.7961H3.10236V28.4748H3.55646V26.7961H4.05486V28.4748H4.50738V26.7961H5.00736V28.4748H5.45988V26.7961H5.95828V28.4748H6.41237V26.7961H6.91077V28.4748H7.36329V26.7961H7.86327V28.4748H8.31579V26.7961H8.81419V28.4748H9.26829V26.7961H9.76669V28.4748H10.2192V26.7961H10.7192V28.4748H11.1717V26.7961H11.6701V28.4748H12.1242V26.7961H12.6226V28.4748H13.0751V26.7961H13.5751V28.4748H14.0276V26.7961H14.526V28.4748H14.9801V26.7961H15.4785V28.4748H15.931V26.7961H16.431V28.4748H16.8835V26.7961H17.3898V28.4748H17.8439V26.7961H18.2553V33.5997H21.934V26.7012H44.9996V24.9117H28.7818V23.013H44.9996V22.4197H44.7496V22.0447C44.7496 22.0237 44.7413 22.0036 44.7265 21.9888C44.7116 21.9739 44.6915 21.9656 44.6705 21.9656C44.6495 21.9656 44.6294 21.9739 44.6146 21.9888C44.5997 22.0036 44.5914 22.0237 44.5914 22.0447V22.4197H44.025V22.0447C44.025 22.0237 44.0166 22.0036 44.0018 21.9888C43.987 21.9739 43.9668 21.9656 43.9459 21.9656C43.9249 21.9656 43.9047 21.9739 43.8899 21.9888C43.8751 22.0036 43.8667 22.0237 43.8667 22.0447V22.4197H43.3003V22.0447C43.3003 22.0237 43.292 22.0036 43.2771 21.9888C43.2623 21.9739 43.2422 21.9656 43.2212 21.9656C43.2002 21.9656 43.1801 21.9739 43.1653 21.9888C43.1504 22.0036 43.1421 22.0237 43.1421 22.0447V22.4197H42.5741V22.0447C42.5741 22.0237 42.5657 22.0036 42.5509 21.9888C42.5361 21.9739 42.5159 21.9656 42.495 21.9656C42.474 21.9656 42.4538 21.9739 42.439 21.9888C42.4242 22.0036 42.4158 22.0237 42.4158 22.0447V22.4197H41.8494V22.0447C41.8494 22.0237 41.8411 22.0036 41.8262 21.9888C41.8114 21.9739 41.7913 21.9656 41.7703 21.9656C41.7493 21.9656 41.7292 21.9739 41.7144 21.9888C41.6995 22.0036 41.6912 22.0237 41.6912 22.0447V22.4197H41.1232V22.0447C41.1232 22.0237 41.1148 22.0036 41.1 21.9888C41.0852 21.9739 41.065 21.9656 41.0441 21.9656C41.0231 21.9656 41.003 21.9739 40.9881 21.9888C40.9733 22.0036 40.9649 22.0237 40.9649 22.0447V22.4197H40.3985V22.0447C40.3985 22.0237 40.3902 22.0036 40.3753 21.9888C40.3605 21.9739 40.3404 21.9656 40.3194 21.9656C40.2984 21.9656 40.2783 21.9739 40.2635 21.9888C40.2486 22.0036 40.2403 22.0237 40.2403 22.0447V22.4197H39.6739V22.0447C39.6739 22.0237 39.6655 22.0036 39.6507 21.9888C39.6358 21.9739 39.6157 21.9656 39.5947 21.9656C39.5738 21.9656 39.5536 21.9739 39.5388 21.9888C39.524 22.0036 39.5156 22.0237 39.5156 22.0447V22.4197H38.9492V22.0447C38.9492 22.0237 38.9409 22.0036 38.926 21.9888C38.9112 21.9739 38.8911 21.9656 38.8701 21.9656C38.8491 21.9656 38.829 21.9739 38.8141 21.9888C38.7993 22.0036 38.791 22.0237 38.791 22.0447V22.4197H38.2245V22.0447C38.2245 22.0237 38.2162 22.0036 38.2014 21.9888C38.1865 21.9739 38.1664 21.9656 38.1454 21.9656C38.1244 21.9656 38.1043 21.9739 38.0895 21.9888C38.0746 22.0036 38.0663 22.0237 38.0663 22.0447V22.4197H37.4999V22.0447C37.4999 22.0237 37.4915 22.0036 37.4767 21.9888C37.4619 21.9739 37.4417 21.9656 37.4208 21.9656C37.3998 21.9656 37.3797 21.9739 37.3648 21.9888C37.35 22.0036 37.3417 22.0237 37.3417 22.0447V22.4197H36.7752V22.0447C36.7752 22.0237 36.7669 22.0036 36.7521 21.9888C36.7372 21.9739 36.7171 21.9656 36.6961 21.9656C36.6751 21.9656 36.655 21.9739 36.6402 21.9888C36.6253 22.0036 36.617 22.0237 36.617 22.0447V22.4197H36.0601V22.0447C36.0601 22.0237 36.0517 22.0036 36.0369 21.9888C36.022 21.9739 36.0019 21.9656 35.9809 21.9656C35.96 21.9656 35.9398 21.9739 35.925 21.9888C35.9102 22.0036 35.9018 22.0237 35.9018 22.0447V22.4197H35.3354V22.0447C35.3354 22.0237 35.3271 22.0036 35.3122 21.9888C35.2974 21.9739 35.2773 21.9656 35.2563 21.9656C35.2353 21.9656 35.2152 21.9739 35.2003 21.9888C35.1855 22.0036 35.1772 22.0237 35.1772 22.0447V22.4197H34.6107V22.0447C34.6107 22.0237 34.6024 22.0036 34.5876 21.9888C34.5727 21.9739 34.5526 21.9656 34.5316 21.9656C34.5106 21.9656 34.4905 21.9739 34.4757 21.9888C34.4609 22.0036 34.4525 22.0237 34.4525 22.0447V22.4197H33.8861V22.0447C33.8861 22.0237 33.8777 22.0036 33.8629 21.9888C33.8481 21.9739 33.828 21.9656 33.807 21.9656C33.786 21.9656 33.7659 21.9739 33.751 21.9888C33.7362 22.0036 33.7279 22.0237 33.7279 22.0447V22.4197H33.1614V22.0447C33.1614 22.0237 33.1531 22.0036 33.1383 21.9888C33.1234 21.9739 33.1033 21.9656 33.0823 21.9656C33.0613 21.9656 33.0412 21.9739 33.0264 21.9888C33.0115 22.0036 33.0032 22.0237 33.0032 22.0447V22.4197H32.4368V22.0447C32.4368 22.0237 32.4284 22.0036 32.4136 21.9888C32.3988 21.9739 32.3786 21.9656 32.3577 21.9656C32.3367 21.9656 32.3166 21.9739 32.3017 21.9888C32.2869 22.0036 32.2785 22.0237 32.2785 22.0447V22.4197H31.7105V22.0447C31.7105 22.0237 31.7022 22.0036 31.6874 21.9888C31.6725 21.9739 31.6524 21.9656 31.6314 21.9656C31.6104 21.9656 31.5903 21.9739 31.5755 21.9888C31.5606 22.0036 31.5523 22.0237 31.5523 22.0447V22.4197H30.9859V22.0447C30.9859 22.0237 30.9775 22.0036 30.9627 21.9888C30.9479 21.9739 30.9277 21.9656 30.9068 21.9656C30.8858 21.9656 30.8657 21.9739 30.8508 21.9888C30.836 22.0036 30.8276 22.0237 30.8276 22.0447V22.4197H30.2533V22.0447C30.2533 22.0237 30.245 22.0036 30.2301 21.9888C30.2153 21.9739 30.1952 21.9656 30.1742 21.9656C30.1532 21.9656 30.1331 21.9739 30.1182 21.9888C30.1034 22.0036 30.0951 22.0237 30.0951 22.0447V22.4197H29.5286V22.0447C29.5286 22.0237 29.5203 22.0036 29.5055 21.9888C29.4906 21.9739 29.4705 21.9656 29.4495 21.9656C29.4286 21.9656 29.4084 21.9739 29.3936 21.9888C29.3788 22.0036 29.3704 22.0237 29.3704 22.0447V22.4197H28.804V22.0447C28.804 22.0237 28.7957 22.0036 28.7808 21.9888C28.766 21.9739 28.7459 21.9656 28.7249 21.9656C28.7039 21.9656 28.6838 21.9739 28.6689 21.9888C28.6541 22.0036 28.6458 22.0237 28.6458 22.0447V22.4197H28.0793V22.0447C28.0793 22.0237 28.071 22.0036 28.0562 21.9888C28.0413 21.9739 28.0212 21.9656 28.0002 21.9656C27.9792 21.9656 27.9591 21.9739 27.9443 21.9888C27.9294 22.0036 27.9211 22.0237 27.9211 22.0447V22.4197H27.3578V22.0447C27.3578 22.0237 27.3495 22.0036 27.3347 21.9888C27.3198 21.9739 27.2997 21.9656 27.2787 21.9656C27.2577 21.9656 27.2376 21.9739 27.2228 21.9888C27.2079 22.0036 27.1996 22.0237 27.1996 22.0447V22.4197H26.63V22.0447C26.63 22.0237 26.6217 22.0036 26.6068 21.9888C26.592 21.9739 26.5719 21.9656 26.5509 21.9656C26.5299 21.9656 26.5098 21.9739 26.495 21.9888C26.4801 22.0036 26.4718 22.0237 26.4718 22.0447V22.4197H25.9054V22.0447C25.9054 22.0237 25.897 22.0036 25.8822 21.9888C25.8673 21.9739 25.8472 21.9656 25.8262 21.9656C25.8053 21.9656 25.7851 21.9739 25.7703 21.9888C25.7555 22.0036 25.7471 22.0237 25.7471 22.0447V22.4197H25.1807V22.0447C25.1807 22.0237 25.1724 22.0036 25.1575 21.9888C25.1427 21.9739 25.1226 21.9656 25.1016 21.9656C25.0806 21.9656 25.0605 21.9739 25.0456 21.9888C25.0308 22.0036 25.0225 22.0237 25.0225 22.0447V22.4197H24.456V22.0447C24.456 22.0237 24.4477 22.0036 24.4329 21.9888C24.418 21.9739 24.3979 21.9656 24.3769 21.9656C24.3559 21.9656 24.3358 21.9739 24.321 21.9888C24.3061 22.0036 24.2978 22.0237 24.2978 22.0447V22.4197H23.7314V22.0447C23.7314 22.0237 23.723 22.0036 23.7082 21.9888C23.6934 21.9739 23.6733 21.9656 23.6523 21.9656C23.6313 21.9656 23.6112 21.9739 23.5963 21.9888C23.5815 22.0036 23.5732 22.0237 23.5732 22.0447V22.4197H23.0067V22.0447C23.0067 22.0237 22.9984 22.0036 22.9835 21.9888C22.9687 21.9739 22.9486 21.9656 22.9276 21.9656C22.9066 21.9656 22.8865 21.9739 22.8717 21.9888C22.8568 22.0036 22.8485 22.0237 22.8485 22.0447V22.4197H22.2821V22.0447C22.2821 22.0237 22.2737 22.0036 22.2589 21.9888C22.2441 21.9739 22.2239 21.9656 22.203 21.9656C22.182 21.9656 22.1618 21.9739 22.147 21.9888C22.1322 22.0036 22.1238 22.0237 22.1238 22.0447V22.4197H21.9261V21.4798H18.741V21.1634C18.741 21.1277 18.7269 21.0935 18.7017 21.0683C18.6764 21.0431 18.6422 21.0289 18.6066 21.0289H18.2601V18.2094C18.2654 17.6174 18.4996 17.0504 18.9135 16.6272C19.1207 16.4187 19.3673 16.2536 19.6389 16.1414C19.9106 16.0292 20.2018 15.9722 20.4957 15.9737H34.5079V16.1319C34.5079 16.1663 34.5216 16.1993 34.5459 16.2237C34.5702 16.248 34.6032 16.2617 34.6376 16.2617H35.2326C35.267 16.2617 35.3 16.248 35.3243 16.2237C35.3486 16.1993 35.3623 16.1663 35.3623 16.1319V15.9737H44.9996V14.5497H35.3575V14.4026ZM-7.73902 16.1256H-8.01275V15.2459H-7.73902V16.1256ZM-7.30866 16.1256H-7.5808V15.2459H-7.30866V16.1256ZM-6.87671 16.1256H-7.15043V15.2459H-6.87671V16.1256ZM-6.44476 16.1256H-6.71849V15.2459H-6.44476V16.1256ZM-6.0144 16.1256H-6.28654V15.2459H-6.0144V16.1256ZM-5.58245 16.1256H-5.85618V15.2459H-5.58245V16.1256ZM-5.15051 16.1256H-5.42423V15.2459H-5.15051V16.1256ZM-4.71856 16.1256H-4.99228V15.2459H-4.71856V16.1256ZM-4.2882 16.1256H-4.56034V15.2459H-4.28661L-4.2882 16.1256ZM-3.85625 16.1256H-4.12839V15.2459H-3.85467L-3.85625 16.1256ZM-3.4243 16.1256H-3.69803V15.2459H-3.4243V16.1256ZM21.9261 23.0083H28.6236V23.4639H21.9261V23.0083ZM21.9261 23.6222H28.6236V24.4133H21.9261V23.6222ZM21.9261 24.5715H28.6236V24.9117H21.9261V24.5715ZM18.2474 26.4797H17.836V24.8025H17.3898V26.4797H16.8835V24.8025H16.431V26.4797H15.931V24.8025H15.4785V26.4797H14.9801V24.8025H14.526V26.4797H14.0276V24.8025H13.5751V26.4797H13.0751V24.8025H12.6226V26.4797H12.1242V24.8025H11.6701V26.4797H11.1717V24.8025H10.7192V26.4797H10.2192V24.8025H9.76669V26.4797H9.26829V24.8025H8.81419V26.4797H8.31579V24.8025H7.86327V26.4797H7.36329V24.8025H6.91077V26.4797H6.41237V24.8025H5.95828V26.4797H5.45988V24.8025H5.00736V26.4797H4.50738V24.8025H4.05486V26.4797H3.55646V24.8025H3.10236V26.4797H2.77326V24.5019H18.2474V26.4797Z" fill="#FF8C8C"/>
<path d="M5.98517 7.92528C5.98517 8.00207 6.01568 8.07572 6.06998 8.13002C6.12428 8.18432 6.19793 8.21483 6.27472 8.21483H6.78894L6.33643 8.66734C6.31421 8.68959 6.30172 8.71975 6.30172 8.7512C6.30172 8.78265 6.31421 8.81281 6.33643 8.83506L6.83325 9.33188L6.33643 9.82711C6.31421 9.84936 6.30172 9.87952 6.30172 9.91097C6.30172 9.94242 6.31421 9.97258 6.33643 9.99483L6.83641 10.4996L6.33959 10.9948C6.31737 11.017 6.30489 11.0472 6.30489 11.0786C6.30489 11.1101 6.31737 11.1403 6.33959 11.1625L6.83641 11.6593L6.33959 12.1546C6.31737 12.1768 6.30489 12.207 6.30489 12.2384C6.30489 12.2699 6.31737 12.3 6.33959 12.3223L6.83641 12.8191L6.33959 13.3143C6.31737 13.3366 6.30489 13.3667 6.30489 13.3982C6.30489 13.4296 6.31737 13.4598 6.33959 13.482L6.83641 13.9789L6.33959 14.4741C6.31737 14.4963 6.30489 14.5265 6.30489 14.558C6.30489 14.5894 6.31737 14.6196 6.33959 14.6418L6.83166 15.1339L6.33959 15.626C6.31737 15.6482 6.30489 15.6784 6.30489 15.7098C6.30489 15.7413 6.31737 15.7714 6.33959 15.7937L6.83641 16.2905L6.33959 16.7857C6.31737 16.808 6.30489 16.8381 6.30489 16.8696C6.30489 16.901 6.31737 16.9312 6.33959 16.9534L6.77312 17.387H6.29845C6.26861 17.3868 6.23902 17.3925 6.21138 17.4037C6.18375 17.415 6.15862 17.4316 6.13744 17.4527C6.11627 17.4737 6.09946 17.4987 6.08799 17.5263C6.07652 17.5538 6.07061 17.5834 6.07061 17.6132V17.9692C6.07096 17.9928 6.07469 18.0163 6.08169 18.0388H4.89028C4.81097 18.0388 4.7349 18.0704 4.67882 18.1264C4.62274 18.1825 4.59124 18.2586 4.59124 18.3379V18.5056C4.5933 18.5835 4.62571 18.6576 4.68157 18.712C4.73743 18.7663 4.81232 18.7968 4.89028 18.7967H5.35387L3.20205 21.2856C4.50738 23.0972 4.87762 23.5909 5.00261 23.7538C5.04375 23.8076 5.16084 23.9595 5.17982 23.9453C5.19881 23.931 5.13869 23.7523 5.10704 23.6747C4.87604 23.0909 4.18461 21.3678 4.15771 21.2856L6.80477 18.7967H7.12121L9.76827 21.284C9.73504 21.3678 9.04361 23.0909 8.81894 23.6747C8.78729 23.7523 8.71767 23.9295 8.74615 23.9437C8.77463 23.9579 8.88222 23.806 8.92494 23.7538C9.04994 23.5956 9.4186 23.0972 10.7239 21.284L8.57369 18.7967H8.94868C9.02799 18.7967 9.10405 18.7652 9.16013 18.7091C9.21621 18.6531 9.24772 18.577 9.24772 18.4977V18.33C9.24772 18.2507 9.21621 18.1746 9.16013 18.1185C9.10405 18.0624 9.02799 18.0309 8.94868 18.0309H7.84112C7.84813 18.0084 7.85185 17.9849 7.8522 17.9613V17.6053C7.8522 17.5755 7.84629 17.5459 7.83482 17.5184C7.82335 17.4908 7.80655 17.4658 7.78537 17.4448C7.76419 17.4237 7.73906 17.4071 7.71143 17.3958C7.68379 17.3845 7.6542 17.3789 7.62436 17.3791H7.14969L7.58322 16.9455C7.60544 16.9233 7.61792 16.8931 7.61792 16.8617C7.61792 16.8302 7.60544 16.8001 7.58322 16.7778L7.0864 16.2826L7.58322 15.7858C7.60544 15.7635 7.61792 15.7333 7.61792 15.7019C7.61792 15.6705 7.60544 15.6403 7.58322 15.618L7.09115 15.126L7.58322 14.6339C7.60544 14.6117 7.61792 14.5815 7.61792 14.55C7.61792 14.5186 7.60544 14.4884 7.58322 14.4662L7.0864 13.971L7.58322 13.4741C7.60544 13.4519 7.61792 13.4217 7.61792 13.3903C7.61792 13.3588 7.60544 13.3287 7.58322 13.3064L7.05792 12.8112L7.55474 12.3144C7.57696 12.2921 7.58944 12.262 7.58944 12.2305C7.58944 12.1991 7.57696 12.1689 7.55474 12.1467L7.05792 11.6514L7.55474 11.1546C7.57696 11.1323 7.58944 11.1022 7.58944 11.0707C7.58944 11.0393 7.57696 11.0091 7.55474 10.9869L7.05792 10.4996L7.55474 10.0027C7.57696 9.98049 7.58944 9.95033 7.58944 9.91888C7.58944 9.88743 7.57696 9.85727 7.55474 9.83502L7.05792 9.33188L7.55474 8.83506C7.57696 8.81281 7.58944 8.78265 7.58944 8.7512C7.58944 8.71975 7.57696 8.68959 7.55474 8.66734L7.10539 8.21483H7.62277C7.69957 8.21483 7.77321 8.18432 7.82751 8.13002C7.88181 8.07572 7.91232 8.00207 7.91232 7.92528V7.81927H24.8532V7.92528C24.8532 8.00207 24.8837 8.07572 24.938 8.13002C24.9923 8.18432 25.0659 8.21483 25.1427 8.21483H25.6016L25.2155 8.60089C25.2043 8.6118 25.1954 8.62484 25.1893 8.63924C25.1833 8.65364 25.1801 8.66912 25.1801 8.68475C25.1801 8.70038 25.1833 8.71585 25.1893 8.73025C25.1954 8.74466 25.2043 8.7577 25.2155 8.7686L25.7107 9.26384L25.2155 9.76066C25.2043 9.77157 25.1954 9.78461 25.1893 9.79901C25.1833 9.81341 25.1801 9.82889 25.1801 9.84452C25.1801 9.86015 25.1833 9.87562 25.1893 9.89002C25.1954 9.90443 25.2043 9.91747 25.2155 9.92837L25.7107 10.4236L25.2155 10.9204C25.2043 10.9313 25.1954 10.9444 25.1893 10.9588C25.1833 10.9732 25.1801 10.9887 25.1801 11.0043C25.1801 11.0199 25.1833 11.0354 25.1893 11.0498C25.1954 11.0642 25.2043 11.0772 25.2155 11.0881L25.7107 11.5834L25.2155 12.0818C25.2043 12.0927 25.1954 12.1057 25.1893 12.1201C25.1833 12.1345 25.1801 12.15 25.1801 12.1656C25.1801 12.1813 25.1833 12.1967 25.1893 12.2111C25.1954 12.2255 25.2043 12.2386 25.2155 12.2495L25.7107 12.7447L25.2155 13.2415C25.2043 13.2525 25.1954 13.2655 25.1893 13.2799C25.1833 13.2943 25.1801 13.3098 25.1801 13.3254C25.1801 13.341 25.1833 13.3565 25.1893 13.3709C25.1954 13.3853 25.2043 13.3984 25.2155 13.4093L25.7107 13.9045L25.2155 14.4013C25.2043 14.4122 25.1954 14.4253 25.1893 14.4397C25.1833 14.4541 25.1801 14.4695 25.1801 14.4852C25.1801 14.5008 25.1833 14.5163 25.1893 14.5307C25.1954 14.5451 25.2043 14.5581 25.2155 14.569L25.7376 15.0912H25.7471H25.1696C25.1093 15.0916 25.0516 15.1157 25.009 15.1584C24.9663 15.201 24.9422 15.2587 24.9418 15.319V15.675C24.942 15.6988 24.9463 15.7223 24.9544 15.7446H23.763C23.6841 15.7446 23.6085 15.776 23.5527 15.8317C23.4969 15.8875 23.4656 15.9632 23.4656 16.0421V16.2098C23.4656 16.2888 23.4969 16.3647 23.5526 16.4207C23.6083 16.4767 23.684 16.5084 23.763 16.5088H24.2377L22.0875 18.9977C23.3928 20.8093 23.7614 21.3046 23.8864 21.4659C23.9118 21.4976 23.9592 21.5625 23.9988 21.6083V22.2333C23.9988 22.3031 24.0125 22.3723 24.0392 22.4368C24.066 22.5013 24.1051 22.5599 24.1545 22.6092C24.2038 22.6586 24.2625 22.6978 24.327 22.7245C24.3915 22.7512 24.4606 22.7649 24.5304 22.7649H27.1458C27.2853 22.7645 27.419 22.7092 27.5179 22.6108C27.6169 22.5125 27.673 22.3791 27.6743 22.2396V21.6147C27.7154 21.5688 27.7629 21.5039 27.7866 21.4723C27.9116 21.314 28.2818 20.8156 29.5872 19.004L27.4369 16.512H27.8056C27.8846 16.5116 27.9603 16.4799 28.016 16.4239C28.0718 16.3678 28.1031 16.292 28.1031 16.213V16.0452C28.1031 15.9664 28.0717 15.8907 28.0159 15.8349C27.9602 15.7791 27.8845 15.7478 27.8056 15.7478H26.6901C26.6983 15.7255 26.7026 15.7019 26.7028 15.6782V15.3253C26.7024 15.265 26.6782 15.2073 26.6356 15.1647C26.593 15.122 26.5353 15.0979 26.475 15.0975H25.8974L26.4212 14.5754C26.4324 14.5645 26.4412 14.5514 26.4473 14.537C26.4534 14.5226 26.4565 14.5071 26.4565 14.4915C26.4565 14.4759 26.4534 14.4604 26.4473 14.446C26.4412 14.4316 26.4324 14.4186 26.4212 14.4076L25.9338 13.9045L26.4291 13.4093C26.4403 13.3984 26.4492 13.3853 26.4552 13.3709C26.4613 13.3565 26.4644 13.341 26.4644 13.3254C26.4644 13.3098 26.4613 13.2943 26.4552 13.2799C26.4492 13.2655 26.4403 13.2525 26.4291 13.2415L25.9338 12.7447L26.4291 12.2495C26.4403 12.2386 26.4492 12.2255 26.4552 12.2111C26.4613 12.1967 26.4644 12.1813 26.4644 12.1656C26.4644 12.15 26.4613 12.1345 26.4552 12.1201C26.4492 12.1057 26.4403 12.0927 26.4291 12.0818L25.9338 11.585L26.4291 11.0897C26.4403 11.0788 26.4492 11.0658 26.4552 11.0514C26.4613 11.037 26.4644 11.0215 26.4644 11.0059C26.4644 10.9902 26.4613 10.9748 26.4552 10.9604C26.4492 10.946 26.4403 10.9329 26.4291 10.922L25.9338 10.4252L26.4291 9.92996C26.4403 9.91905 26.4492 9.90601 26.4552 9.89161C26.4613 9.8772 26.4644 9.86173 26.4644 9.8461C26.4644 9.83047 26.4613 9.81499 26.4552 9.80059C26.4492 9.78619 26.4403 9.77315 26.4291 9.76224L25.9338 9.26542L26.4291 8.77019C26.4403 8.75928 26.4492 8.74624 26.4552 8.73184C26.4613 8.71743 26.4644 8.70196 26.4644 8.68633C26.4644 8.6707 26.4613 8.65522 26.4552 8.64082C26.4492 8.62642 26.4403 8.61338 26.4291 8.60247L26.0414 8.21483H26.4876C26.5645 8.21483 26.6384 8.18437 26.6929 8.13012C26.7475 8.07586 26.7783 8.00222 26.7787 7.92528V7.81927H44.9949V7.02816H26.7787V6.92215C26.7779 6.84534 26.7469 6.77194 26.6925 6.71777C26.638 6.6636 26.5644 6.63302 26.4876 6.6326H25.9813V-1.96519C28.0034 -0.363982 32.7849 2.70711 38.9429 1.8622C41.0883 1.56244 43.1496 0.82634 44.9996 -0.300693V-0.485813C43.1473 0.65853 41.0771 1.40482 38.9207 1.70556C32.9431 2.52516 28.2597 -0.39088 26.1933 -2H25.6174V6.6326H25.1427C25.0661 6.63302 24.9926 6.66366 24.9384 6.71787C24.8842 6.77208 24.8536 6.84549 24.8532 6.92215V7.02816H7.90916V6.92215C7.90874 6.84549 7.8781 6.77208 7.82389 6.71787C7.76968 6.66366 7.69627 6.63302 7.61961 6.6326H7.13229V-1.72944C9.49728 0.328674 12.4877 1.52839 15.6193 1.6755C15.8124 1.68341 16.0006 1.68658 16.1889 1.68658C20.9973 1.68658 24.3817 -0.908267 25.5905 -2H25.3532C24.0019 -0.816498 20.5068 1.72772 15.6257 1.51728C12.6733 1.38194 9.84331 0.297682 7.55632 -1.57438C9.09679 -0.773843 10.7711 -0.262761 12.496 -0.0665244C13.0181 -0.00654054 13.5432 0.0235708 14.0687 0.0236623C16.6765 0.00104356 19.234 -0.696115 21.4925 -2L21.1682 -2C19.2964 -0.976302 16.2364 0.199289 12.5198 -0.223164C10.6228 -0.440418 8.78983 -1.04118 7.13229 -1.98892V-2H6.76363V-1.95728C5.29779 -0.526711 3.63298 0.684596 1.82077 1.63911C-1.33728 3.27018 -4.84618 4.10449 -8.40039 4.0694L-8.40039 4.22763H-8.28805C-4.74527 4.24252 -1.25148 3.40001 1.89513 1.77202C3.67418 0.835798 5.313 -0.345518 6.76363 -1.73735V6.6326H6.27472C6.19806 6.63302 6.12465 6.66366 6.07044 6.71787C6.01623 6.77208 5.98559 6.84549 5.98517 6.92215V7.02816H-8.40039V7.81927H5.98517V7.92528ZM25.9908 16.512L28.6379 19.0008C28.6046 19.0831 27.6774 21.4011 27.6743 21.4058V18.5689C27.6743 18.4991 27.6605 18.4299 27.6338 18.3654C27.6071 18.3009 27.5679 18.2423 27.5186 18.193C27.4692 18.1436 27.4106 18.1044 27.3461 18.0777C27.2816 18.051 27.2125 18.0373 27.1427 18.0373H24.5272C24.3864 18.0377 24.2514 18.0938 24.1518 18.1934C24.0522 18.293 23.996 18.428 23.9956 18.5689V21.4169C23.9956 21.4169 23.0668 19.0926 23.0336 19.0103L25.6807 16.512H25.9908ZM26.1775 14.482L25.8215 14.8364L25.4671 14.482L25.8215 14.126L26.1775 14.482ZM26.1775 13.3222L25.8215 13.6767L25.4671 13.3222L25.8215 12.9662L26.1775 13.3222ZM26.1775 12.1625L25.8215 12.5169L25.4671 12.1625L25.8215 11.8065L26.1775 12.1625ZM26.1775 11.0027L25.8215 11.3571L25.4671 11.0027L25.8215 10.6578L26.1775 11.0027ZM26.1775 9.84293L25.8215 10.1989L25.4671 9.84293L25.8215 9.48693L26.1775 9.84293ZM25.8215 8.32716L26.1775 8.68316L25.8215 9.03916L25.4671 8.68316L25.8215 8.32716ZM7.30949 16.8585L6.94717 17.2177L6.59117 16.8617L6.94717 16.512L7.30949 16.8585ZM7.30949 15.6987L6.94717 16.0579L6.59117 15.7019L6.94717 15.3459L7.30949 15.6987ZM7.30949 14.5469L6.94717 14.906L6.59117 14.55L6.94717 14.1956L7.30949 14.5469ZM7.30949 13.3871L6.94717 13.7463L6.59117 13.3903L6.94717 13.0311L7.30949 13.3871ZM7.30949 12.2273L6.94717 12.5865L6.59117 12.2305L6.94717 11.8761L7.30949 12.2273ZM7.30949 11.0676L6.94717 11.4267L6.59117 11.0707L6.94717 10.7163L7.30949 11.0676ZM7.30949 9.90781L6.94717 10.267L6.59117 9.91097L6.94717 9.55022L7.30949 9.90781ZM7.30949 8.74804L6.94717 9.1072L6.59117 8.75911L6.94717 8.39678L7.30949 8.74804Z" fill="#FF3334"/>
<path d="M-3.37683 26.3943C-3.3756 26.9921 -3.14523 27.5666 -2.73315 27.9995C-2.32107 28.4325 -1.75866 28.691 -1.16172 28.7218C-1.14224 28.7234 -1.12266 28.7234 -1.10318 28.7218H1.46002V30.7676C1.46086 31.3758 1.70284 31.9589 2.13291 32.3889C2.56297 32.819 3.14603 33.061 3.75424 33.0618H6.91869C6.92497 33.1267 6.95518 33.187 7.00344 33.2308C7.05169 33.2747 7.11454 33.2991 7.17975 33.2991H13.9089C13.9743 33.2991 14.0374 33.2748 14.0859 33.231C14.1344 33.1871 14.1649 33.1269 14.1716 33.0618H44.9996V32.2707H14.1605C14.1432 32.2175 14.1096 32.1712 14.0644 32.1382C14.0193 32.1053 13.9649 32.0874 13.9089 32.0872H7.17501C7.11925 32.0873 7.06497 32.1051 7.02003 32.1381C6.97509 32.1711 6.94181 32.2175 6.92501 32.2707H3.76057C3.36218 32.2699 2.98034 32.1112 2.69863 31.8295C2.41693 31.5478 2.2583 31.166 2.25746 30.7676V28.7281H22.8817V28.899C22.8817 28.9254 22.8922 28.9508 22.9109 28.9695C22.9296 28.9882 22.955 28.9987 22.9814 28.9987H23.4339C23.4604 28.9987 23.4857 28.9882 23.5044 28.9695C23.5231 28.9508 23.5336 28.9254 23.5336 28.899V28.7281H31.7232C32.3419 28.7273 32.935 28.4811 33.3725 28.0436C33.81 27.6061 34.0561 27.013 34.057 26.3943V24.396H34.2278C34.2542 24.3956 34.2793 24.3849 34.2979 24.3663C34.3165 24.3477 34.3271 24.3226 34.3275 24.2963V23.8438C34.3275 23.8174 34.317 23.792 34.2983 23.7733C34.2796 23.7546 34.2543 23.7441 34.2278 23.7441H34.057V21.2711C34.0574 20.8831 34.2117 20.511 34.4861 20.2367C34.7605 19.9623 35.1325 19.808 35.5205 19.8075H40.4555V19.9784C40.4555 20.0049 40.466 20.0302 40.4847 20.0489C40.5034 20.0676 40.5287 20.0781 40.5551 20.0781H41.0061C41.0325 20.0781 41.0579 20.0676 41.0766 20.0489C41.0953 20.0302 41.1058 20.0049 41.1058 19.9784V19.8075H44.9996V18.9373H41.1058V18.7664C41.1058 18.74 41.0953 18.7146 41.0766 18.696C41.0579 18.6773 41.0325 18.6668 41.0061 18.6668H40.5551C40.5287 18.6668 40.5034 18.6773 40.4847 18.696C40.466 18.7146 40.4555 18.74 40.4555 18.7664V18.9373H35.5205C34.9018 18.9382 34.3087 19.1843 33.8712 19.6218C33.4337 20.0593 33.1876 20.6524 33.1867 21.2711V23.7441H33.0159C32.9894 23.7441 32.9641 23.7546 32.9454 23.7733C32.9267 23.792 32.9162 23.8174 32.9162 23.8438V24.2963C32.9162 24.3227 32.9267 24.3481 32.9454 24.3668C32.9641 24.3855 32.9894 24.396 33.0159 24.396H33.1867V26.3943C33.1863 26.7824 33.032 27.1544 32.7576 27.4288C32.4832 27.7031 32.1112 27.8575 31.7232 27.8579H23.5336V27.687C23.5336 27.6606 23.5231 27.6352 23.5044 27.6165C23.4857 27.5978 23.4604 27.5873 23.4339 27.5873H22.9814C22.955 27.5873 22.9296 27.5978 22.9109 27.6165C22.8922 27.6352 22.8817 27.6606 22.8817 27.687V27.8579H2.25271V26.4893C2.25187 25.8811 2.00989 25.298 1.57983 24.8679C1.14976 24.4379 0.566698 24.1959 -0.0415096 24.195C-0.0483761 24.144 -0.073452 24.0972 -0.112121 24.0631C-0.150789 24.0291 -0.200446 24.0102 -0.251945 24.0099H-1.67595C-1.72717 24.0106 -1.77645 24.0297 -1.81479 24.0637C-1.85313 24.0976 -1.87797 24.1443 -1.8848 24.195H-2.51769V21.8059H-2.34681C-2.32037 21.8059 -2.29502 21.7954 -2.27632 21.7767C-2.25763 21.758 -2.24713 21.7326 -2.24713 21.7062V21.2584C-2.24713 21.232 -2.25763 21.2066 -2.27632 21.188C-2.29502 21.1693 -2.32037 21.1588 -2.34681 21.1588H-2.50661V20.7458C-2.51758 20.6936 -2.51758 20.6397 -2.50661 20.5876V19.1841C-2.50661 18.565 -2.75244 17.9713 -3.19006 17.5334C-3.62769 17.0954 -4.22129 16.8492 -4.84039 16.8488H-6.21534V16.67C-6.21575 16.6437 -6.22638 16.6186 -6.24499 16.6C-6.26359 16.5814 -6.28871 16.5707 -6.31502 16.5703H-6.76754C-6.79397 16.5703 -6.81933 16.5808 -6.83802 16.5995C-6.85672 16.6182 -6.86722 16.6436 -6.86722 16.67V16.8425H-8.40039V17.7127H-6.86722V17.8836C-6.86722 17.91 -6.85672 17.9353 -6.83802 17.954C-6.81933 17.9727 -6.79397 17.9832 -6.76754 17.9832H-6.31502C-6.28871 17.9828 -6.26359 17.9722 -6.24499 17.9536C-6.22638 17.935 -6.21575 17.9099 -6.21534 17.8836V17.7127H-4.84039C-4.45223 17.7127 -4.07997 17.8669 -3.8055 18.1413C-3.53103 18.4158 -3.37683 18.7881 -3.37683 19.1762V20.5797C-3.36587 20.6318 -3.36587 20.6857 -3.37683 20.7379V21.1508H-3.54771C-3.56202 21.1499 -3.57636 21.152 -3.58977 21.1571C-3.60317 21.1622 -3.61532 21.1701 -3.62538 21.1803C-3.63544 21.1906 -3.64318 21.2028 -3.64808 21.2163C-3.65297 21.2298 -3.65489 21.2441 -3.65372 21.2584V21.711C-3.65372 21.7374 -3.64322 21.7627 -3.62453 21.7814C-3.60583 21.8001 -3.58048 21.8106 -3.55404 21.8106H-3.38316V24.1998H-8.40039V24.9909H-3.37683V26.3943ZM-2.50661 24.9862H-1.87372C-1.8669 25.0369 -1.84205 25.0836 -1.80371 25.1175C-1.76537 25.1515 -1.7161 25.1706 -1.66487 25.1713H-0.24087C-0.18937 25.171 -0.139713 25.1521 -0.101045 25.1181C-0.062377 25.084 -0.0373001 25.0372 -0.0304346 24.9862C0.367958 24.987 0.749795 25.1456 1.0315 25.4273C1.31321 25.709 1.47184 26.0909 1.47268 26.4893V27.8579H-1.04306C-1.43109 27.8575 -1.80311 27.7031 -2.07748 27.4288C-2.35186 27.1544 -2.50619 26.7824 -2.50661 26.3943V24.9862Z" fill="#FF6A6A"/>
<path d="M44.0171 24.7788V24.225C44.0171 24.1751 43.9972 24.1272 43.9619 24.0919C43.9266 24.0566 43.8787 24.0367 43.8288 24.0367H43.7307C43.7307 24.0367 43.7307 24.0272 43.7307 24.0209V23.9339C43.7307 23.9209 43.7255 23.9084 43.7163 23.8992C43.7071 23.89 43.6946 23.8848 43.6816 23.8848H43.5092C43.4961 23.8848 43.4837 23.89 43.4745 23.8992C43.4653 23.9084 43.4601 23.9209 43.4601 23.9339V24.0209C43.4611 24.0268 43.4639 24.0324 43.468 24.0367H43.2291L43.0709 23.2614C43.1159 23.2321 43.1492 23.1879 43.1649 23.1366C43.1807 23.0853 43.178 23.03 43.1572 22.9805C43.1365 22.931 43.099 22.8903 43.0513 22.8656C43.0036 22.8408 42.9488 22.8336 42.8964 22.8451C42.8439 22.8567 42.7972 22.8863 42.7643 22.9287C42.7314 22.9712 42.7144 23.0238 42.7164 23.0775C42.7183 23.1312 42.739 23.1824 42.7749 23.2224C42.8108 23.2624 42.8595 23.2885 42.9127 23.2962L43.0582 24.0367H42.8636C42.8636 24.0367 42.8636 24.0272 42.8636 24.0209V23.9339C42.8636 23.9209 42.8584 23.9084 42.8492 23.8992C42.84 23.89 42.8276 23.8848 42.8146 23.8848H42.6421C42.6291 23.8848 42.6166 23.89 42.6074 23.8992C42.5982 23.9084 42.5931 23.9209 42.5931 23.9339V24.0209C42.5931 24.0209 42.5931 24.032 42.5931 24.0367H42.4617C42.4617 24.0367 42.4617 24.0272 42.4617 24.0209V23.9339C42.4617 23.9209 42.4566 23.9084 42.4474 23.8992C42.4382 23.89 42.4257 23.8848 42.4127 23.8848H42.2402C42.2272 23.8848 42.2147 23.89 42.2055 23.8992C42.1963 23.9084 42.1912 23.9209 42.1912 23.9339V24.0209C42.1922 24.0268 42.1949 24.0324 42.1991 24.0367H42.1358C42.0859 24.0367 42.038 24.0566 42.0027 24.0919C41.9673 24.1272 41.9475 24.1751 41.9475 24.225V24.7788C41.9477 24.8051 41.9536 24.831 41.9649 24.8547H40.6643C40.6756 24.831 40.6816 24.8051 40.6817 24.7788V24.225C40.6817 24.1751 40.6619 24.1272 40.6266 24.0919C40.5913 24.0566 40.5434 24.0367 40.4934 24.0367H40.3953C40.3953 24.0367 40.3953 24.0272 40.3953 24.0209V23.9339C40.3953 23.9209 40.3902 23.9084 40.381 23.8992C40.3718 23.89 40.3593 23.8848 40.3463 23.8848H40.1738C40.1608 23.8848 40.1483 23.89 40.1391 23.8992C40.13 23.9084 40.1248 23.9209 40.1248 23.9339V24.0209C40.1258 24.0268 40.1285 24.0324 40.1327 24.0367H39.8574L40.1185 23.2693C40.1723 23.2653 40.223 23.2426 40.2618 23.2051C40.3007 23.1676 40.3251 23.1177 40.331 23.064C40.3368 23.0104 40.3237 22.9563 40.2939 22.9113C40.2641 22.8664 40.2194 22.8332 40.1677 22.8177C40.116 22.8022 40.0605 22.8053 40.0108 22.8264C39.9612 22.8476 39.9205 22.8855 39.8958 22.9335C39.8712 22.9815 39.8641 23.0366 39.8759 23.0893C39.8876 23.142 39.9175 23.1889 39.9602 23.2219L39.6833 24.0367H39.5251C39.5251 24.0367 39.5251 24.0272 39.5251 24.0209V23.9339C39.5251 23.9209 39.52 23.9084 39.5108 23.8992C39.5016 23.89 39.4891 23.8848 39.4761 23.8848H39.3194C39.313 23.8848 39.3066 23.8861 39.3007 23.8886C39.2947 23.891 39.2893 23.8946 39.2848 23.8992C39.2802 23.9037 39.2766 23.9092 39.2741 23.9151C39.2717 23.9211 39.2704 23.9274 39.2704 23.9339V24.0209C39.2704 24.0209 39.2704 24.032 39.2704 24.0367H39.1391C39.1391 24.0367 39.1391 24.0272 39.1391 24.0209V23.9339C39.1391 23.9209 39.1339 23.9084 39.1247 23.8992C39.1155 23.89 39.103 23.8848 39.09 23.8848H38.9175C38.9045 23.8848 38.8921 23.89 38.8829 23.8992C38.8737 23.9084 38.8685 23.9209 38.8685 23.9339V24.0209C38.8695 24.0268 38.8722 24.0324 38.8764 24.0367H38.8131C38.7632 24.0367 38.7153 24.0566 38.68 24.0919C38.6447 24.1272 38.6248 24.1751 38.6248 24.225V24.7788C38.625 24.8051 38.6309 24.831 38.6422 24.8547H38.1502C37.4682 24.8547 36.9176 25.3389 36.9176 25.9354V27.2281H35.8101V29.8118H31.1219C31.173 29.7601 31.2132 29.6988 31.2404 29.6315C31.2675 29.5641 31.2811 29.4921 31.2802 29.4194V27.7091C31.2802 27.563 31.2222 27.423 31.1189 27.3197C31.0156 27.2165 30.8756 27.1584 30.7295 27.1584H26.9797C26.8336 27.1584 26.6936 27.2165 26.5903 27.3197C26.4871 27.423 26.4291 27.563 26.4291 27.7091V29.4194C26.4282 29.4921 26.4417 29.5641 26.4689 29.6315C26.496 29.6988 26.5363 29.7601 26.5873 29.8118H16.0101C16.0695 29.7577 16.1169 29.6917 16.1494 29.6181C16.1818 29.5445 16.1985 29.465 16.1984 29.3846V26.8262C16.198 26.6712 16.1361 26.5227 16.0264 26.4132C15.9167 26.3038 15.768 26.2423 15.613 26.2423H10.6701C10.5151 26.2423 10.3665 26.3038 10.2567 26.4132C10.147 26.5227 10.0851 26.6712 10.0847 26.8262V29.3846C10.0846 29.465 10.1013 29.5445 10.1338 29.6181C10.1662 29.6917 10.2136 29.7577 10.273 29.8118H-1.72816V26.7423C-1.7276 26.4912 -1.81324 26.2475 -1.97077 26.052C-2.12829 25.8564 -2.34817 25.7209 -2.59363 25.668C-2.583 25.6676 -2.57294 25.6631 -2.56556 25.6554C-2.55819 25.6477 -2.55407 25.6375 -2.55408 25.6269V25.5303C-2.55449 25.5189 -2.55934 25.508 -2.5676 25.5C-2.57587 25.4921 -2.5869 25.4876 -2.59838 25.4876H-2.82306C-2.83383 25.4884 -2.8439 25.4933 -2.85124 25.5012C-2.85858 25.5091 -2.86264 25.5195 -2.86261 25.5303V25.6269C-2.86163 25.6338 -2.8589 25.6403 -2.8547 25.6458H-3.03666C-3.03245 25.6403 -3.02973 25.6338 -3.02875 25.6269V25.5303C-3.02916 25.5189 -3.034 25.508 -3.04227 25.5C-3.05053 25.4921 -3.06157 25.4876 -3.07305 25.4876H-3.29772C-3.3085 25.4884 -3.31857 25.4933 -3.32591 25.5012C-3.33324 25.5091 -3.33731 25.5195 -3.33728 25.5303V25.6269C-3.33629 25.6338 -3.33357 25.6403 -3.32937 25.6458H-3.51132C-3.50712 25.6403 -3.5044 25.6338 -3.50341 25.6269V25.5303C-3.50382 25.5189 -3.50867 25.508 -3.51693 25.5C-3.5252 25.4921 -3.53623 25.4876 -3.54771 25.4876H-3.77239C-3.78316 25.4884 -3.79323 25.4933 -3.80057 25.5012C-3.80791 25.5091 -3.81198 25.5195 -3.81195 25.5303V25.6269C-3.81096 25.6338 -3.80824 25.6403 -3.80404 25.6458H-4.08883V25.4876C-4.0882 25.4611 -4.09283 25.4347 -4.10245 25.41C-4.11207 25.3853 -4.12649 25.3627 -4.14487 25.3436C-4.16326 25.3245 -4.18525 25.3092 -4.20958 25.2986C-4.23391 25.288 -4.26009 25.2823 -4.28661 25.2819V25.2139C-4.28702 25.2024 -4.29187 25.1916 -4.30013 25.1836C-4.3084 25.1756 -4.31943 25.1712 -4.33091 25.1712H-4.55875C-4.5645 25.171 -4.57022 25.1719 -4.57559 25.174C-4.58096 25.176 -4.58585 25.1791 -4.58999 25.1831C-4.59413 25.1871 -4.59742 25.1919 -4.59966 25.1972C-4.60191 25.2025 -4.60306 25.2081 -4.60306 25.2139V25.2819H-4.76128V25.2139C-4.76169 25.2024 -4.76654 25.1916 -4.7748 25.1836C-4.78307 25.1756 -4.7941 25.1712 -4.80558 25.1712H-5.03342C-5.03916 25.171 -5.04489 25.1719 -5.05026 25.174C-5.05562 25.176 -5.06052 25.1791 -5.06466 25.1831C-5.06879 25.1871 -5.07208 25.1919 -5.07433 25.1972C-5.07657 25.2025 -5.07773 25.2081 -5.07772 25.2139V25.2819H-5.23595V25.2139C-5.23636 25.2024 -5.2412 25.1916 -5.24947 25.1836C-5.25773 25.1756 -5.26877 25.1712 -5.28025 25.1712H-5.50809C-5.51383 25.171 -5.51956 25.1719 -5.52492 25.174C-5.53029 25.176 -5.53519 25.1791 -5.53932 25.1831C-5.54346 25.1871 -5.54675 25.1919 -5.54899 25.1972C-5.55124 25.2025 -5.55239 25.2081 -5.55239 25.2139V25.2819C-5.57891 25.2817 -5.60521 25.2868 -5.62977 25.2968C-5.65434 25.3068 -5.67667 25.3215 -5.6955 25.3402C-5.71433 25.3589 -5.72927 25.3811 -5.73947 25.4056C-5.74967 25.4301 -5.75492 25.4563 -5.75491 25.4829V25.6411H-6.10617V21.8738C-6.10617 21.7156 -6.25015 21.5685 -6.46217 21.4893V20.8565C-6.46217 20.8355 -6.4705 20.8153 -6.48534 20.8005C-6.50018 20.7857 -6.5203 20.7773 -6.54128 20.7773C-6.56226 20.7773 -6.58238 20.7857 -6.59722 20.8005C-6.61206 20.8153 -6.62039 20.8355 -6.62039 20.8565V21.4435C-6.68878 21.4308 -6.75812 21.4239 -6.82766 21.4229H-7.18683V20.8565C-7.18683 20.8355 -7.19516 20.8153 -7.21 20.8005C-7.22483 20.7857 -7.24496 20.7773 -7.26594 20.7773C-7.28692 20.7773 -7.30704 20.7857 -7.32188 20.8005C-7.33671 20.8153 -7.34505 20.8355 -7.34505 20.8565V21.4229H-7.91148V20.8565C-7.91148 20.8355 -7.91982 20.8153 -7.93466 20.8005C-7.94949 20.7857 -7.96961 20.7773 -7.9906 20.7773C-8.01158 20.7773 -8.0317 20.7857 -8.04654 20.8005C-8.06137 20.8153 -8.06971 20.8355 -8.06971 20.8565V21.4229H-8.40039V33.5997H-1.72816V31.7105H17.8392V33.5997H18.749V31.7105H35.8227V33.5997H44.9996V24.8547H43.9996C44.011 24.831 44.0169 24.8051 44.0171 24.7788ZM35.8227 31.3941H-1.72816V30.9194H-1.31836C-1.28688 30.9951 -1.23375 31.0598 -1.16563 31.1054C-1.09751 31.151 -1.01744 31.1754 -0.935466 31.1757H34.924C35.006 31.1754 35.0861 31.151 35.1542 31.1054C35.2223 31.0598 35.2754 30.9951 35.3069 30.9194H35.8227V31.3941ZM-1.15065 30.7612C-1.15065 30.7098 -1.13543 30.6597 -1.10692 30.617C-1.0784 30.5743 -1.03788 30.5411 -0.990464 30.5214C-0.94305 30.5018 -0.890876 30.4967 -0.84054 30.5067C-0.790205 30.5167 -0.74397 30.5414 -0.70768 30.5777C-0.671391 30.614 -0.646677 30.6602 -0.636665 30.7105C-0.626653 30.7609 -0.631792 30.8131 -0.651431 30.8605C-0.671071 30.9079 -0.70433 30.9484 -0.747002 30.9769C-0.789674 31.0054 -0.839843 31.0206 -0.891164 31.0206C-0.959983 31.0206 -1.02598 30.9933 -1.07465 30.9446C-1.12331 30.896 -1.15065 30.83 -1.15065 30.7612ZM0.551824 30.7612C0.551824 30.7098 0.567041 30.6597 0.595553 30.617C0.624066 30.5743 0.664593 30.5411 0.712008 30.5214C0.759421 30.5018 0.811595 30.4967 0.86193 30.5067C0.912266 30.5167 0.958501 30.5414 0.99479 30.5777C1.03108 30.614 1.05579 30.6602 1.06581 30.7105C1.07582 30.7609 1.07068 30.8131 1.05104 30.8605C1.0314 30.9079 0.998141 30.9484 0.955469 30.9769C0.912797 31.0054 0.862629 31.0206 0.811308 31.0206C0.777173 31.0209 0.743336 31.0143 0.71176 31.0013C0.680182 30.9884 0.651493 30.9693 0.627356 30.9451C0.603219 30.921 0.584113 30.8923 0.571147 30.8607C0.558182 30.8291 0.551613 30.7953 0.551824 30.7612ZM2.25429 30.7612C2.2543 30.71 2.26944 30.6599 2.29781 30.6173C2.32619 30.5747 2.36653 30.5415 2.41376 30.5218C2.46099 30.502 2.513 30.4967 2.56325 30.5065C2.6135 30.5162 2.65973 30.5406 2.69615 30.5766C2.73256 30.6126 2.75752 30.6585 2.76789 30.7086C2.77825 30.7588 2.77356 30.8108 2.75441 30.8583C2.73525 30.9058 2.70249 30.9465 2.66023 30.9754C2.61798 31.0043 2.56812 31.02 2.51694 31.0206C2.4826 31.0211 2.44852 31.0147 2.41667 31.0018C2.38482 30.989 2.35584 30.9699 2.33141 30.9458C2.30698 30.9216 2.28758 30.8929 2.27434 30.8612C2.26111 30.8295 2.25429 30.7955 2.25429 30.7612ZM3.95677 30.7612C3.95645 30.7094 3.97154 30.6587 4.0001 30.6155C4.02867 30.5724 4.06942 30.5387 4.11719 30.5187C4.16496 30.4987 4.21758 30.4934 4.26837 30.5035C4.31916 30.5135 4.36582 30.5384 4.40243 30.575C4.43904 30.6116 4.46393 30.6583 4.47395 30.709C4.48398 30.7598 4.47867 30.8125 4.45872 30.8602C4.43876 30.908 4.40506 30.9487 4.36188 30.9773C4.31871 31.0059 4.26802 31.021 4.21625 31.0206C4.14743 31.0206 4.08143 30.9933 4.03277 30.9446C3.9841 30.896 3.95677 30.83 3.95677 30.7612ZM5.66082 30.7612C5.66082 30.7098 5.67604 30.6597 5.70455 30.617C5.73306 30.5743 5.77359 30.5411 5.821 30.5214C5.86842 30.5018 5.92059 30.4967 5.97093 30.5067C6.02126 30.5167 6.0675 30.5414 6.10379 30.5777C6.14008 30.614 6.16479 30.6602 6.1748 30.7105C6.18481 30.7609 6.17968 30.8131 6.16004 30.8605C6.1404 30.9079 6.10714 30.9484 6.06447 30.9769C6.02179 31.0054 5.97162 31.0206 5.9203 31.0206C5.88617 31.0209 5.85233 31.0143 5.82075 31.0013C5.78918 30.9884 5.76049 30.9693 5.73635 30.9451C5.71221 30.921 5.69311 30.8923 5.68014 30.8607C5.66718 30.8291 5.66061 30.7953 5.66082 30.7612ZM7.36329 30.7612C7.36329 30.7098 7.37851 30.6597 7.40702 30.617C7.43553 30.5743 7.47606 30.5411 7.52347 30.5214C7.57089 30.5018 7.62306 30.4967 7.6734 30.5067C7.72373 30.5167 7.76997 30.5414 7.80626 30.5777C7.84255 30.614 7.86726 30.6602 7.87727 30.7105C7.88729 30.7609 7.88215 30.8131 7.86251 30.8605C7.84287 30.9079 7.80961 30.9484 7.76694 30.9769C7.72426 31.0054 7.6741 31.0206 7.62277 31.0206C7.58864 31.0209 7.5548 31.0143 7.52323 31.0013C7.49165 30.9884 7.46296 30.9693 7.43882 30.9451C7.41469 30.921 7.39558 30.8923 7.38262 30.8607C7.36965 30.8291 7.36308 30.7953 7.36329 30.7612ZM9.06576 30.7612C9.06577 30.7096 9.08112 30.6593 9.10984 30.6165C9.13857 30.5738 9.17938 30.5405 9.22707 30.521C9.27477 30.5015 9.32718 30.4967 9.37764 30.5071C9.4281 30.5175 9.47432 30.5427 9.51041 30.5794C9.54651 30.6162 9.57084 30.6629 9.58031 30.7135C9.58978 30.7642 9.58396 30.8165 9.56359 30.8638C9.54322 30.9111 9.50922 30.9513 9.46593 30.9792C9.42264 31.0072 9.37201 31.0216 9.3205 31.0206C9.25237 31.0198 9.18735 30.9921 9.13962 30.9434C9.09189 30.8948 9.06534 30.8293 9.06576 30.7612ZM10.7682 30.7612C10.7682 30.7098 10.7835 30.6597 10.812 30.617C10.8405 30.5743 10.881 30.5411 10.9284 30.5214C10.9758 30.5018 11.028 30.4967 11.0783 30.5067C11.1287 30.5167 11.1749 30.5414 11.2112 30.5777C11.2475 30.614 11.2722 30.6602 11.2822 30.7105C11.2922 30.7609 11.2871 30.8131 11.2674 30.8605C11.2478 30.9079 11.2146 30.9484 11.1719 30.9769C11.1292 31.0054 11.079 31.0206 11.0277 31.0206C10.9589 31.0206 10.8929 30.9933 10.8442 30.9446C10.7956 30.896 10.7682 30.83 10.7682 30.7612ZM12.4707 30.7612C12.4704 30.7094 12.4855 30.6587 12.514 30.6155C12.5426 30.5724 12.5834 30.5387 12.6311 30.5187C12.6789 30.4987 12.7315 30.4934 12.7823 30.5035C12.8331 30.5135 12.8798 30.5384 12.9164 30.575C12.953 30.6116 12.9779 30.6583 12.9879 30.709C12.9979 30.7598 12.9926 30.8125 12.9727 30.8602C12.9527 30.908 12.919 30.9487 12.8758 30.9773C12.8326 31.0059 12.782 31.021 12.7302 31.0206C12.6614 31.0206 12.5954 30.9933 12.5467 30.9446C12.498 30.896 12.4707 30.83 12.4707 30.7612ZM14.1732 30.7612C14.1729 30.7095 14.1879 30.6588 14.2164 30.6157C14.2449 30.5726 14.2856 30.5388 14.3332 30.5188C14.3809 30.4988 14.4335 30.4934 14.4842 30.5033C14.5349 30.5132 14.5816 30.538 14.6183 30.5744C14.6549 30.6109 14.68 30.6574 14.6902 30.7081C14.7004 30.7588 14.6953 30.8113 14.6756 30.8591C14.6559 30.9069 14.6224 30.9478 14.5794 30.9765C14.5365 31.0053 14.4859 31.0206 14.4342 31.0206C14.4 31.0209 14.3661 31.0143 14.3345 31.0014C14.3028 30.9884 14.274 30.9693 14.2497 30.9452C14.2255 30.9211 14.2062 30.8924 14.1931 30.8608C14.1799 30.8292 14.1732 30.7954 14.1732 30.7612ZM15.8772 30.7612C15.8772 30.7098 15.8924 30.6597 15.921 30.617C15.9495 30.5743 15.99 30.5411 16.0374 30.5214C16.0848 30.5018 16.137 30.4967 16.1873 30.5067C16.2377 30.5167 16.2839 30.5414 16.3202 30.5777C16.3565 30.614 16.3812 30.6602 16.3912 30.7105C16.4012 30.7609 16.3961 30.8131 16.3764 30.8605C16.3568 30.9079 16.3235 30.9484 16.2809 30.9769C16.2382 31.0054 16.188 31.0206 16.1367 31.0206C16.1026 31.0209 16.0687 31.0143 16.0372 31.0013C16.0056 30.9884 15.9769 30.9693 15.9528 30.9451C15.9286 30.921 15.9095 30.8923 15.8966 30.8607C15.8836 30.8291 15.877 30.7953 15.8772 30.7612ZM17.5797 30.7612C17.5797 30.7098 17.5949 30.6597 17.6234 30.617C17.6519 30.5743 17.6925 30.5411 17.7399 30.5214C17.7873 30.5018 17.8395 30.4967 17.8898 30.5067C17.9401 30.5167 17.9864 30.5414 18.0227 30.5777C18.059 30.614 18.0837 30.6602 18.0937 30.7105C18.1037 30.7609 18.0986 30.8131 18.0789 30.8605C18.0593 30.9079 18.026 30.9484 17.9833 30.9769C17.9407 31.0054 17.8905 31.0206 17.8392 31.0206C17.805 31.0209 17.7712 31.0143 17.7396 31.0013C17.7081 30.9884 17.6794 30.9693 17.6552 30.9451C17.6311 30.921 17.612 30.8923 17.599 30.8607C17.5861 30.8291 17.5795 30.7953 17.5797 30.7612ZM19.2822 30.7612C19.2822 30.7098 19.2974 30.6597 19.3259 30.617C19.3544 30.5743 19.3949 30.5411 19.4424 30.5214C19.4898 30.5018 19.5419 30.4967 19.5923 30.5067C19.6426 30.5167 19.6888 30.5414 19.7251 30.5777C19.7614 30.614 19.7861 30.6602 19.7962 30.7105C19.8062 30.7609 19.801 30.8131 19.7814 30.8605C19.7617 30.9079 19.7285 30.9484 19.6858 30.9769C19.6431 31.0054 19.593 31.0206 19.5417 31.0206C19.4739 31.019 19.4095 30.9909 19.3622 30.9424C19.3149 30.894 19.2885 30.8289 19.2885 30.7612H19.2822ZM20.9846 30.7612C20.9843 30.7094 20.9994 30.6587 21.028 30.6155C21.0565 30.5724 21.0973 30.5387 21.1451 30.5187C21.1928 30.4987 21.2455 30.4934 21.2962 30.5035C21.347 30.5135 21.3937 30.5384 21.4303 30.575C21.4669 30.6116 21.4918 30.6583 21.5018 30.709C21.5119 30.7598 21.5065 30.8125 21.4866 30.8602C21.4666 30.908 21.4329 30.9487 21.3898 30.9773C21.3466 31.0059 21.2959 31.021 21.2441 31.0206C21.1753 31.0206 21.1093 30.9933 21.0606 30.9446C21.012 30.896 20.9846 30.83 20.9846 30.7612ZM22.6871 30.7612C22.6868 30.7095 22.7018 30.6588 22.7303 30.6157C22.7588 30.5726 22.7995 30.5388 22.8472 30.5188C22.8948 30.4988 22.9474 30.4934 22.9981 30.5033C23.0489 30.5132 23.0955 30.538 23.1322 30.5744C23.1689 30.6109 23.1939 30.6574 23.2041 30.7081C23.2143 30.7588 23.2092 30.8113 23.1895 30.8591C23.1698 30.9069 23.1363 30.9478 23.0934 30.9765C23.0504 31.0053 22.9999 31.0206 22.9482 31.0206C22.914 31.0209 22.8801 31.0143 22.8484 31.0014C22.8167 30.9884 22.7879 30.9693 22.7637 30.9452C22.7394 30.9211 22.7202 30.8924 22.707 30.8608C22.6939 30.8292 22.6871 30.7954 22.6871 30.7612ZM24.3912 30.7612C24.3912 30.7098 24.4064 30.6597 24.4349 30.617C24.4634 30.5743 24.5039 30.5411 24.5513 30.5214C24.5988 30.5018 24.6509 30.4967 24.7013 30.5067C24.7516 30.5167 24.7978 30.5414 24.8341 30.5777C24.8704 30.614 24.8951 30.6602 24.9051 30.7105C24.9152 30.7609 24.91 30.8131 24.8904 30.8605C24.8707 30.9079 24.8375 30.9484 24.7948 30.9769C24.7521 31.0054 24.702 31.0206 24.6507 31.0206C24.6165 31.0209 24.5827 31.0143 24.5511 31.0013C24.5195 30.9884 24.4908 30.9693 24.4667 30.9451C24.4426 30.921 24.4235 30.8923 24.4105 30.8607C24.3975 30.8291 24.391 30.7953 24.3912 30.7612ZM26.0936 30.7612C26.0936 30.7098 26.1089 30.6597 26.1374 30.617C26.1659 30.5743 26.2064 30.5411 26.2538 30.5214C26.3012 30.5018 26.3534 30.4967 26.4037 30.5067C26.4541 30.5167 26.5003 30.5414 26.5366 30.5777C26.5729 30.614 26.5976 30.6602 26.6076 30.7105C26.6176 30.7609 26.6125 30.8131 26.5929 30.8605C26.5732 30.9079 26.54 30.9484 26.4973 30.9769C26.4546 31.0054 26.4044 31.0206 26.3531 31.0206C26.3189 31.0211 26.2848 31.0147 26.2531 31.0018C26.2213 30.9889 26.1924 30.9698 26.1681 30.9457C26.1438 30.9215 26.1246 30.8928 26.1115 30.8611C26.0985 30.8294 26.0918 30.7954 26.0921 30.7612H26.0936ZM27.7961 30.7612C27.7961 30.7098 27.8113 30.6597 27.8398 30.617C27.8684 30.5743 27.9089 30.5411 27.9563 30.5214C28.0037 30.5018 28.0559 30.4967 28.1062 30.5067C28.1566 30.5167 28.2028 30.5414 28.2391 30.5777C28.2754 30.614 28.3001 30.6602 28.3101 30.7105C28.3201 30.7609 28.315 30.8131 28.2953 30.8605C28.2757 30.9079 28.2424 30.9484 28.1998 30.9769C28.1571 31.0054 28.1069 31.0206 28.0556 31.0206C28.0215 31.0209 27.9876 31.0143 27.956 31.0013C27.9245 30.9884 27.8958 30.9693 27.8716 30.9451C27.8475 30.921 27.8284 30.8923 27.8154 30.8607C27.8025 30.8291 27.7959 30.7953 27.7961 30.7612ZM29.4986 30.7612C29.4986 30.7098 29.5138 30.6597 29.5423 30.617C29.5708 30.5743 29.6114 30.5411 29.6588 30.5214C29.7062 30.5018 29.7584 30.4967 29.8087 30.5067C29.859 30.5167 29.9053 30.5414 29.9415 30.5777C29.9778 30.614 30.0026 30.6602 30.0126 30.7105C30.0226 30.7609 30.0174 30.8131 29.9978 30.8605C29.9782 30.9079 29.9449 30.9484 29.9022 30.9769C29.8596 31.0054 29.8094 31.0206 29.7581 31.0206C29.6892 31.0206 29.6232 30.9933 29.5746 30.9446C29.5259 30.896 29.4986 30.83 29.4986 30.7612ZM31.201 30.7612C31.2007 30.7095 31.2158 30.6588 31.2443 30.6157C31.2728 30.5726 31.3134 30.5388 31.3611 30.5188C31.4088 30.4988 31.4613 30.4934 31.5121 30.5033C31.5628 30.5132 31.6095 30.538 31.6462 30.5744C31.6828 30.6109 31.7078 30.6574 31.718 30.7081C31.7282 30.7588 31.7232 30.8113 31.7035 30.8591C31.6837 30.9069 31.6503 30.9478 31.6073 30.9765C31.5644 31.0053 31.5138 31.0206 31.4621 31.0206C31.4279 31.0209 31.394 31.0143 31.3623 31.0014C31.3307 30.9884 31.3019 30.9693 31.2776 30.9452C31.2533 30.9211 31.2341 30.8924 31.221 30.8608C31.2078 30.8292 31.201 30.7954 31.201 30.7612ZM32.9051 30.7612C32.9051 30.7098 32.9203 30.6597 32.9488 30.617C32.9773 30.5743 33.0179 30.5411 33.0653 30.5214C33.1127 30.5018 33.1649 30.4967 33.2152 30.5067C33.2655 30.5167 33.3118 30.5414 33.3481 30.5777C33.3844 30.614 33.4091 30.6602 33.4191 30.7105C33.4291 30.7609 33.424 30.8131 33.4043 30.8605C33.3847 30.9079 33.3514 30.9484 33.3088 30.9769C33.2661 31.0054 33.2159 31.0206 33.1646 31.0206C33.1305 31.0209 33.0966 31.0143 33.065 31.0013C33.0335 30.9884 33.0048 30.9693 32.9806 30.9451C32.9565 30.921 32.9374 30.8923 32.9244 30.8607C32.9115 30.8291 32.9049 30.7953 32.9051 30.7612ZM34.6076 30.7612C34.6076 30.7098 34.6228 30.6597 34.6513 30.617C34.6798 30.5743 34.7203 30.5411 34.7678 30.5214C34.8152 30.5018 34.8673 30.4967 34.9177 30.5067C34.968 30.5167 35.0143 30.5414 35.0505 30.5777C35.0868 30.614 35.1115 30.6602 35.1216 30.7105C35.1316 30.7609 35.1264 30.8131 35.1068 30.8605C35.0872 30.9079 35.0539 30.9484 35.0112 30.9769C34.9685 31.0054 34.9184 31.0206 34.8671 31.0206C34.8329 31.0209 34.7991 31.0143 34.7675 31.0013C34.7359 30.9884 34.7072 30.9693 34.6831 30.9451C34.659 30.921 34.6399 30.8923 34.6269 30.8607C34.6139 30.8291 34.6074 30.7953 34.6076 30.7612ZM35.8227 30.6029H35.3069C35.2754 30.5274 35.2222 30.4629 35.154 30.4176C35.0859 30.3723 35.0059 30.3481 34.924 30.3482H-0.935466C-1.01731 30.3481 -1.09734 30.3723 -1.16548 30.4176C-1.23362 30.4629 -1.28681 30.5274 -1.31836 30.6029H-1.72816V30.1283H35.8227V30.6029Z" fill="#FF3334"/>
</g>
<circle cx="16" cy="16" r="15.5" stroke="white"/>
</svg>
