<svg width="18" height="19" viewBox="0 0 18 19" fill="none" xmlns="http://www.w3.org/2000/svg">
<path d="M4 1V8L9 5.5L14 8V1H17C17.2652 1 17.5196 1.10536 17.7071 1.29289C17.8946 1.48043 18 1.73478 18 2V18C18 18.2652 17.8946 18.5196 17.7071 18.7071C17.5196 18.8946 17.2652 19 17 19H1C0.734784 19 0.48043 18.8946 0.292893 18.7071C0.105357 18.5196 0 18.2652 0 18V2C0 1.73478 0.105357 1.48043 0.292893 1.29289C0.48043 1.10536 0.734784 1 1 1H4ZM9 5L4.5 0H13.5L9 5ZM10 8.236L9 7.736L8 8.236V17H10V8.236ZM12 11V13H16V11H12Z" fill="#FF3334"/>
</svg>
