<svg width="18" height="20" viewBox="0 0 18 20" fill="none" xmlns="http://www.w3.org/2000/svg">
<path d="M9.00004 15C12.662 15 15.865 16.575 17.607 18.925L15.765 19.796C14.347 18.116 11.847 17 9.00004 17C6.15304 17 3.65304 18.116 2.23504 19.796L0.394043 18.924C2.13604 16.574 5.33804 15 9.00004 15ZM9.00004 0C10.3261 0 11.5979 0.526784 12.5356 1.46447C13.4733 2.40215 14 3.67392 14 5V8C14 9.32608 13.4733 10.5979 12.5356 11.5355C11.5979 12.4732 10.3261 13 9.00004 13C7.67396 13 6.40219 12.4732 5.46451 11.5355C4.52683 10.5979 4.00004 9.32608 4.00004 8V5C4.00004 3.67392 4.52683 2.40215 5.46451 1.46447C6.40219 0.526784 7.67396 0 9.00004 0Z" fill="#FF3334"/>
</svg>
