<svg width="7" height="104" viewBox="0 0 7 104" fill="none" xmlns="http://www.w3.org/2000/svg">
<path d="M3.5 0.113249L0.613249 3L3.5 5.88675L6.38675 3L3.5 0.113249ZM3.5 103.887L6.38676 101L3.5 98.1133L0.613253 101L3.5 103.887ZM3 3L3 5.04167L4 5.04167L4 3L3 3ZM3 9.125L3 13.2083L4 13.2083L4 9.125L3 9.125ZM3 17.2917L3 21.375L4 21.375L4 17.2917L3 17.2917ZM3 25.4583L3 29.5417L4 29.5417L4 25.4583L3 25.4583ZM3 33.625L3 37.7083L4 37.7083L4 33.625L3 33.625ZM3 41.7917L3 45.875L4 45.875L4 41.7917L3 41.7917ZM3 49.9583L3 54.0417L4 54.0417L4 49.9583L3 49.9583ZM3 58.125L3 62.2083L4 62.2083L4 58.125L3 58.125ZM3 66.2917L3 70.375L4 70.375L4 66.2917L3 66.2917ZM3 74.4583L3 78.5417L4 78.5417L4 74.4583L3 74.4583ZM3 82.625L3 86.7083L4 86.7083L4 82.625L3 82.625ZM3 90.7917L3 94.875L4 94.875L4 90.7917L3 90.7917ZM3 98.9583L3 101L4 101L4 98.9583L3 98.9583Z" fill="white"/>
</svg>
