<svg width="144" height="44" viewBox="0 0 144 44" fill="none" xmlns="http://www.w3.org/2000/svg">
<path d="M0 0H6.2857V44H0V0Z" fill="#FF3334"/>
<path d="M44 37.7143V44H0V37.7143H44Z" fill="#FF3334"/>
<path d="M37.7144 0H44V44H37.7144V0Z" fill="#FF3334"/>
<path d="M44 0V6.2857H0L2.74757e-07 0H44Z" fill="#FF3334"/>
<path d="M18.857 31.4286H12.5713V12.5714H18.857V31.4286Z" fill="#FF3334"/>
<path d="M12.5713 31.4287V25.1429H31.4285V31.4287H12.5713Z" fill="#FF3334"/>
<path d="M31.4289 31.4287H25.1431V22H31.4289V31.4287Z" fill="#FF3334"/>
<path d="M31.4289 31.4287H25.1431V22H31.4289V31.4287Z" fill="#FF3334"/>
<path d="M31.4289 18.8571H25.1431V12.5714H31.4289V18.8571Z" fill="#FF3334"/>
<path d="M58.1538 11.7535H63.5372V30.4975H75.2012V34.8535H58.1538V11.7535Z" fill="#040605"/>
<path d="M77.8438 17.0995H83.0278V34.8535H77.8438V17.0995ZM80.4358 14.6245C79.4832 14.6245 78.7078 14.3495 78.1096 13.7995C77.5115 13.2495 77.2124 12.5675 77.2124 11.7535C77.2124 10.9395 77.5115 10.2575 78.1096 9.70749C78.7078 9.15749 79.4832 8.88249 80.4358 8.88249C81.3884 8.88249 82.1638 9.14649 82.7619 9.67449C83.3601 10.2025 83.6592 10.8625 83.6592 11.6545C83.6592 12.5125 83.3601 13.2275 82.7619 13.7995C82.1638 14.3495 81.3884 14.6245 80.4358 14.6245Z" fill="#040605"/>
<path d="M98.4062 16.8355C100.068 16.8355 101.574 17.2205 102.926 17.9905C104.299 18.7385 105.374 19.8055 106.149 21.1915C106.924 22.5555 107.312 24.1505 107.312 25.9765C107.312 27.8025 106.924 29.4085 106.149 30.7945C105.374 32.1585 104.299 33.2255 102.926 33.9955C101.574 34.7435 100.068 35.1175 98.4062 35.1175C95.9472 35.1175 94.0752 34.3475 92.7902 32.8075V34.8535H87.8389V10.3675H93.0229V18.9805C94.3299 17.5505 96.1244 16.8355 98.4062 16.8355ZM97.509 30.8935C98.8382 30.8935 99.9238 30.4535 100.766 29.5735C101.63 28.6715 102.062 27.4725 102.062 25.9765C102.062 24.4805 101.63 23.2925 100.766 22.4125C99.9238 21.5105 98.8382 21.0595 97.509 21.0595C96.1798 21.0595 95.0832 21.5105 94.2192 22.4125C93.3773 23.2925 92.9564 24.4805 92.9564 25.9765C92.9564 27.4725 93.3773 28.6715 94.2192 29.5735C95.0832 30.4535 96.1798 30.8935 97.509 30.8935Z" fill="#040605"/>
<path d="M115.734 19.4425C116.354 18.5845 117.185 17.9355 118.226 17.4955C119.289 17.0555 120.508 16.8355 121.881 16.8355V21.5875C121.305 21.5435 120.918 21.5215 120.718 21.5215C119.234 21.5215 118.071 21.9395 117.229 22.7755C116.387 23.5895 115.966 24.8215 115.966 26.4715V34.8535H110.782V17.0995H115.734V19.4425Z" fill="#040605"/>
<path d="M132.078 16.8355C134.847 16.8355 136.974 17.4955 138.458 18.8155C139.942 20.1135 140.685 22.0825 140.685 24.7225V34.8535H135.833V32.6425C134.858 34.2925 133.041 35.1175 130.383 35.1175C129.009 35.1175 127.813 34.8865 126.794 34.4245C125.797 33.9625 125.033 33.3245 124.501 32.5105C123.969 31.6965 123.704 30.7725 123.704 29.7385C123.704 28.0885 124.324 26.7905 125.565 25.8445C126.827 24.8985 128.766 24.4255 131.38 24.4255H135.501C135.501 23.3035 135.157 22.4455 134.47 21.8515C133.784 21.2355 132.753 20.9275 131.38 20.9275C130.427 20.9275 129.486 21.0815 128.555 21.3895C127.647 21.6755 126.872 22.0715 126.229 22.5775L124.368 18.9805C125.343 18.2985 126.506 17.7705 127.857 17.3965C129.231 17.0225 130.638 16.8355 132.078 16.8355ZM131.679 31.6525C132.565 31.6525 133.352 31.4545 134.038 31.0585C134.725 30.6405 135.213 30.0355 135.501 29.2435V27.4285H131.945C129.818 27.4285 128.755 28.1215 128.755 29.5075C128.755 30.1675 129.009 30.6955 129.519 31.0915C130.051 31.4655 130.771 31.6525 131.679 31.6525Z" fill="#040605"/>
</svg>
