<svg width="144" height="44" viewBox="0 0 144 44" fill="none" xmlns="http://www.w3.org/2000/svg">
<path d="M0 0H6.2857V44H0V0Z" fill="#FF3334"/>
<path d="M44 37.7139V43.9995H0V37.7139H44Z" fill="#FF3334"/>
<path d="M37.7144 0H44V44H37.7144V0Z" fill="#FF3334"/>
<path d="M44 0V6.2857H0L2.74757e-07 0H44Z" fill="#FF3334"/>
<path d="M18.857 31.4285H12.5713V12.5713H18.857V31.4285Z" fill="#FF3334"/>
<path d="M12.5713 31.4284V25.1426H31.4285V31.4284H12.5713Z" fill="#FF3334"/>
<path d="M31.4289 31.4286H25.1431V22H31.4289V31.4286Z" fill="#FF3334"/>
<path d="M31.4289 31.4286H25.1431V22H31.4289V31.4286Z" fill="#FF3334"/>
<path d="M31.4289 18.857H25.1431V12.5713H31.4289V18.857Z" fill="#FF3334"/>
<path d="M58.1538 11.7539H63.5372V30.4979H75.2012V34.8539H58.1538V11.7539Z" fill="white"/>
<path d="M77.8438 17.0998H83.0278V34.8538H77.8438V17.0998ZM80.4358 14.6248C79.4832 14.6248 78.7078 14.3498 78.1096 13.7998C77.5115 13.2498 77.2124 12.5678 77.2124 11.7538C77.2124 10.9398 77.5115 10.2578 78.1096 9.70781C78.7078 9.15781 79.4832 8.88281 80.4358 8.88281C81.3884 8.88281 82.1638 9.14681 82.7619 9.67481C83.3601 10.2028 83.6592 10.8628 83.6592 11.6548C83.6592 12.5128 83.3601 13.2278 82.7619 13.7998C82.1638 14.3498 81.3884 14.6248 80.4358 14.6248Z" fill="white"/>
<path d="M98.4062 16.8352C100.068 16.8352 101.574 17.2202 102.926 17.9902C104.299 18.7382 105.374 19.8052 106.149 21.1912C106.924 22.5552 107.312 24.1502 107.312 25.9762C107.312 27.8022 106.924 29.4082 106.149 30.7942C105.374 32.1582 104.299 33.2252 102.926 33.9952C101.574 34.7432 100.068 35.1172 98.4062 35.1172C95.9472 35.1172 94.0752 34.3472 92.7902 32.8072V34.8532H87.8389V10.3672H93.0229V18.9802C94.3299 17.5502 96.1244 16.8352 98.4062 16.8352ZM97.509 30.8932C98.8382 30.8932 99.9238 30.4532 100.766 29.5732C101.63 28.6712 102.062 27.4722 102.062 25.9762C102.062 24.4802 101.63 23.2922 100.766 22.4122C99.9238 21.5102 98.8382 21.0592 97.509 21.0592C96.1798 21.0592 95.0832 21.5102 94.2192 22.4122C93.3773 23.2922 92.9564 24.4802 92.9564 25.9762C92.9564 27.4722 93.3773 28.6712 94.2192 29.5732C95.0832 30.4532 96.1798 30.8932 97.509 30.8932Z" fill="white"/>
<path d="M115.734 19.4429C116.354 18.5849 117.185 17.9359 118.226 17.4959C119.289 17.0559 120.508 16.8359 121.881 16.8359V21.5879C121.305 21.5439 120.918 21.5219 120.718 21.5219C119.234 21.5219 118.071 21.9399 117.229 22.7759C116.387 23.5899 115.966 24.8219 115.966 26.4719V34.8539H110.782V17.0999H115.734V19.4429Z" fill="white"/>
<path d="M132.078 16.8359C134.847 16.8359 136.974 17.4959 138.458 18.8159C139.942 20.1139 140.685 22.0829 140.685 24.7229V34.8539H135.833V32.6429C134.858 34.2929 133.041 35.1179 130.383 35.1179C129.009 35.1179 127.813 34.8869 126.794 34.4249C125.797 33.9629 125.033 33.3249 124.501 32.5109C123.969 31.6969 123.704 30.7729 123.704 29.7389C123.704 28.0889 124.324 26.7909 125.565 25.8449C126.827 24.8989 128.766 24.4259 131.38 24.4259H135.501C135.501 23.3039 135.157 22.4459 134.47 21.8519C133.784 21.2359 132.753 20.9279 131.38 20.9279C130.427 20.9279 129.486 21.0819 128.555 21.3899C127.647 21.6759 126.872 22.0719 126.229 22.5779L124.368 18.9809C125.343 18.2989 126.506 17.7709 127.857 17.3969C129.231 17.0229 130.638 16.8359 132.078 16.8359ZM131.679 31.6529C132.565 31.6529 133.352 31.4549 134.038 31.0589C134.725 30.6409 135.213 30.0359 135.501 29.2439V27.4289H131.945C129.818 27.4289 128.755 28.1219 128.755 29.5079C128.755 30.1679 129.009 30.6959 129.519 31.0919C130.051 31.4659 130.771 31.6529 131.679 31.6529Z" fill="white"/>
</svg>
