<svg width="28" height="28" viewBox="0 0 28 28" fill="none" xmlns="http://www.w3.org/2000/svg">
<rect width="28.0002" height="28" rx="2" fill="white"/>
<path d="M4 4H6.85714V24H4V4Z" fill="#FF3334"/>
<path d="M24 21.1426V23.9997H4V21.1426H24Z" fill="#FF3334"/>
<path d="M21.1431 4H24.0002V24H21.1431V4Z" fill="#FF3334"/>
<path d="M24 4V6.85714H4L4 4H24Z" fill="#FF3334"/>
<path d="M12.571 18.2853H9.71387V9.71387H12.571V18.2853Z" fill="#FF3334"/>
<path d="M9.71387 18.2849V15.4277H18.2853V18.2849H9.71387Z" fill="#FF3334"/>
<path d="M18.2859 18.2857H15.4287V14H18.2859V18.2857Z" fill="#FF3334"/>
<path d="M18.2859 18.2857H15.4287V14H18.2859V18.2857Z" fill="#FF3334"/>
<path d="M18.2859 12.571H15.4287V9.71387H18.2859V12.571Z" fill="#FF3334"/>
</svg>
