<svg width="80" height="80" viewBox="0 0 80 80" fill="none" xmlns="http://www.w3.org/2000/svg">
<g filter="url(#filter0_d_621_488)">
<rect x="20" y="16" width="40" height="40" rx="20" fill="#FF3334"/>
<path d="M30 29.5V27.993C30.0018 27.7304 30.1069 27.479 30.2925 27.2932C30.4781 27.1074 30.7294 27.0021 30.992 27H49.008C49.556 27 50 27.445 50 27.993V44.007C49.9982 44.2696 49.8931 44.521 49.7075 44.7068C49.5219 44.8926 49.2706 44.9979 49.008 45H30.992C30.7288 44.9997 30.4765 44.895 30.2905 44.7088C30.1045 44.5226 30 44.2702 30 44.007V43H48V31.3L40 38.5L30 29.5ZM28 34H33V36H28V34ZM28 39H36V41H28V39Z" fill="white"/>
</g>
<defs>
<filter id="filter0_d_621_488" x="0" y="0" width="80" height="80" filterUnits="userSpaceOnUse" color-interpolation-filters="sRGB">
<feFlood flood-opacity="0" result="BackgroundImageFix"/>
<feColorMatrix in="SourceAlpha" type="matrix" values="0 0 0 0 0 0 0 0 0 0 0 0 0 0 0 0 0 0 127 0" result="hardAlpha"/>
<feOffset dy="4"/>
<feGaussianBlur stdDeviation="10"/>
<feComposite in2="hardAlpha" operator="out"/>
<feColorMatrix type="matrix" values="0 0 0 0 0 0 0 0 0 0 0 0 0 0 0 0 0 0 0.08 0"/>
<feBlend mode="normal" in2="BackgroundImageFix" result="effect1_dropShadow_621_488"/>
<feBlend mode="normal" in="SourceGraphic" in2="effect1_dropShadow_621_488" result="shape"/>
</filter>
</defs>
</svg>
