<svg width="68" height="68" viewBox="0 0 68 68" fill="none" xmlns="http://www.w3.org/2000/svg">
<circle cx="34" cy="34" r="34" fill="white"/>
<path d="M35 36.062V44H26C25.9999 42.8649 26.2413 41.7428 26.7083 40.7083C27.1752 39.6737 27.857 38.7503 28.7082 37.9995C29.5595 37.2487 30.5608 36.6876 31.6456 36.3536C32.7304 36.0195 33.8738 35.9201 35 36.062ZM34 35C30.685 35 28 32.315 28 29C28 25.685 30.685 23 34 23C37.315 23 40 25.685 40 29C40 32.315 37.315 35 34 35ZM39.793 41.914L43.328 38.379L44.743 39.793L39.793 44.743L36.257 41.207L37.672 39.793L39.792 41.914H39.793Z" fill="#FF3334"/>
</svg>
