<svg width="68" height="68" viewBox="0 0 68 68" fill="none" xmlns="http://www.w3.org/2000/svg">
<circle cx="34" cy="34" r="34" fill="white"/>
<path d="M43 24.992V43.008C42.9979 43.2706 42.8926 43.5219 42.7068 43.7075C42.521 43.8931 42.2696 43.9982 42.007 44H25.993C25.7298 44 25.4774 43.8955 25.2912 43.7095C25.105 43.5235 25.0003 43.2712 25 43.008V24.992C25.0021 24.7294 25.1074 24.4781 25.2932 24.2925C25.479 24.1069 25.7304 24.0018 25.993 24H42.007C42.555 24 43 24.444 43 24.992ZM41 26H27V42H41V26ZM33.293 35.121L37.536 30.879L38.95 32.293L33.293 37.95L29.403 34.06L30.818 32.646L33.293 35.121Z" fill="#FF3334"/>
</svg>
