<svg width="68" height="68" viewBox="0 0 68 68" fill="none" xmlns="http://www.w3.org/2000/svg">
<circle cx="34" cy="34" r="34" fill="#040605"/>
<path d="M26 37V30.5C26 29.3065 26.4741 28.1619 27.318 27.318C28.1619 26.4741 29.3065 26 30.5 26C31.6935 26 32.8381 26.4741 33.682 27.318C34.5259 28.1619 35 29.3065 35 30.5V37.5C35 38.163 35.2634 38.7989 35.7322 39.2678C36.2011 39.7366 36.837 40 37.5 40C38.163 40 38.7989 39.7366 39.2678 39.2678C39.7366 38.7989 40 38.163 40 37.5V30.83C39.3325 30.5941 38.7699 30.1298 38.4116 29.5192C38.0534 28.9086 37.9225 28.191 38.0422 27.4932C38.1619 26.7954 38.5244 26.1625 39.0656 25.7061C39.6069 25.2498 40.292 24.9995 41 24.9995C41.708 24.9995 42.3931 25.2498 42.9344 25.7061C43.4756 26.1625 43.8381 26.7954 43.9578 27.4932C44.0775 28.191 43.9466 28.9086 43.5884 29.5192C43.2301 30.1298 42.6675 30.5941 42 30.83V37.5C42 38.6935 41.5259 39.8381 40.682 40.682C39.8381 41.5259 38.6935 42 37.5 42C36.3065 42 35.1619 41.5259 34.318 40.682C33.4741 39.8381 33 38.6935 33 37.5V30.5C33 29.837 32.7366 29.2011 32.2678 28.7322C31.7989 28.2634 31.163 28 30.5 28C29.837 28 29.2011 28.2634 28.7322 28.7322C28.2634 29.2011 28 29.837 28 30.5V37H31L27 42L23 37H26Z" fill="white"/>
</svg>
