<svg width="80" height="80" viewBox="0 0 80 80" fill="none" xmlns="http://www.w3.org/2000/svg">
<g filter="url(#filter0_d_621_493)">
<rect x="20" y="16" width="40" height="40" rx="20" fill="#2F89CE"/>
<path d="M40 46.0001C34.477 46.0001 30 41.5231 30 36.0001C30 30.4771 34.477 26.0001 40 26.0001C45.523 26.0001 50 30.4771 50 36.0001C50 41.5231 45.523 46.0001 40 46.0001ZM36.89 37.1701L36.903 37.1631L37.773 40.0331C37.885 40.3441 38.039 40.4001 38.226 40.3741C38.414 40.3491 38.513 40.2481 38.636 40.1301L39.824 38.9821L42.374 40.8701C42.84 41.1271 43.175 40.9941 43.291 40.4381L44.948 32.6161C45.131 31.8881 44.811 31.5961 44.246 31.8281L34.513 35.5881C33.849 35.8541 33.853 36.2261 34.393 36.3911L36.89 37.1711V37.1701Z" fill="white"/>
</g>
<defs>
<filter id="filter0_d_621_493" x="0" y="0" width="80" height="80" filterUnits="userSpaceOnUse" color-interpolation-filters="sRGB">
<feFlood flood-opacity="0" result="BackgroundImageFix"/>
<feColorMatrix in="SourceAlpha" type="matrix" values="0 0 0 0 0 0 0 0 0 0 0 0 0 0 0 0 0 0 127 0" result="hardAlpha"/>
<feOffset dy="4"/>
<feGaussianBlur stdDeviation="10"/>
<feComposite in2="hardAlpha" operator="out"/>
<feColorMatrix type="matrix" values="0 0 0 0 0 0 0 0 0 0 0 0 0 0 0 0 0 0 0.08 0"/>
<feBlend mode="normal" in2="BackgroundImageFix" result="effect1_dropShadow_621_493"/>
<feBlend mode="normal" in="SourceGraphic" in2="effect1_dropShadow_621_493" result="shape"/>
</filter>
</defs>
</svg>
