<svg width="40" height="40" viewBox="0 0 40 40" fill="none" xmlns="http://www.w3.org/2000/svg">
<rect width="40" height="40" rx="20" fill="white"/>
<path d="M20 30C14.477 30 10 25.523 10 20C10 14.477 14.477 10 20 10C25.523 10 30 14.477 30 20C30 25.523 25.523 30 20 30ZM16.89 21.17L16.903 21.163L17.773 24.033C17.885 24.344 18.039 24.4 18.226 24.374C18.414 24.349 18.513 24.248 18.636 24.13L19.824 22.982L22.374 24.87C22.84 25.127 23.175 24.994 23.291 24.438L24.948 16.616C25.131 15.888 24.811 15.596 24.246 15.828L14.513 19.588C13.849 19.854 13.853 20.226 14.393 20.391L16.89 21.171V21.17Z" fill="#FF3334"/>
</svg>
