<svg width="24" height="20" viewBox="0 0 24 20" fill="none" xmlns="http://www.w3.org/2000/svg">
<path d="M12.0001 10C10.674 10 9.40225 9.47322 8.46456 8.53553C7.52688 7.59785 7.0001 6.32608 7.0001 5C7.0001 3.67392 7.52688 2.40215 8.46456 1.46447C9.40225 0.526784 10.674 0 12.0001 0C13.3262 0 14.5979 0.526784 15.5356 1.46447C16.4733 2.40215 17.0001 3.67392 17.0001 5C17.0001 6.32608 16.4733 7.59785 15.5356 8.53553C14.5979 9.47322 13.3262 10 12.0001 10ZM18.0001 15V20H16.0001V15C16.0001 10.549 18.6441 6.715 22.4471 4.984L23.2751 6.804C21.7018 7.51958 20.3678 8.67295 19.4324 10.1263C18.497 11.5797 17.9998 13.2716 18.0001 15ZM8.0001 15V20H6.0001V15C6.00024 13.2718 5.50292 11.5801 4.56753 10.1269C3.63214 8.67372 2.29823 7.52051 0.725098 6.805L1.5531 4.984C3.47578 5.85849 5.1061 7.26796 6.24932 9.04405C7.39254 10.8201 8.00033 12.8878 8.0001 15Z" fill="#FF3334"/>
</svg>
