<svg width="18" height="20" viewBox="0 0 18 20" fill="none" xmlns="http://www.w3.org/2000/svg">
<path d="M18 8H8V15.382C8 16.945 8.777 18.405 10.074 19.274L11.157 20H0.993C0.729813 20 0.477391 19.8955 0.291196 19.7095C0.105001 19.5235 0.000265042 19.2712 0 19.008V0.992C0 0.455 0.447 0 0.998 0H12.997L18 5V8ZM10 10H18V15.382C18 16.279 17.554 17.116 16.813 17.612L14 19.499L11.187 17.614C10.8212 17.3681 10.5216 17.036 10.3146 16.6469C10.1076 16.2578 9.99955 15.8237 10 15.383V10Z" fill="#FF3334"/>
</svg>
