<svg width="21" height="21" viewBox="0 0 21 21" fill="none" xmlns="http://www.w3.org/2000/svg">
<path d="M16.031 14.617L20.314 18.899L18.899 20.314L14.617 16.031C13.0237 17.3082 11.042 18.0029 9 18C4.032 18 0 13.968 0 9C0 4.032 4.032 0 9 0C13.968 0 18 4.032 18 9C18.0029 11.042 17.3082 13.0237 16.031 14.617ZM10.178 5.177C9.32438 4.9142 8.40735 4.94466 7.57305 5.26352C6.73875 5.58238 6.03516 6.1713 5.5744 6.93644C5.11365 7.70158 4.92223 8.59892 5.03064 9.48548C5.13906 10.372 5.54108 11.1968 6.17264 11.8284C6.8042 12.4599 7.62896 12.8619 8.51552 12.9704C9.40208 13.0788 10.2994 12.8874 11.0646 12.4266C11.8297 11.9658 12.4186 11.2623 12.7375 10.4279C13.0563 9.59365 13.0868 8.67662 12.824 7.823C12.6906 8.1177 12.4878 8.37566 12.2328 8.57475C11.9779 8.77383 11.6784 8.90811 11.3602 8.96606C11.042 9.02401 10.7144 9.0039 10.4056 8.90746C10.0969 8.81103 9.8161 8.64114 9.58742 8.41236C9.35873 8.18359 9.18894 7.90276 9.09262 7.59395C8.9963 7.28515 8.97632 6.9576 9.03439 6.63938C9.09246 6.32116 9.22685 6.02177 9.42603 5.76689C9.62521 5.51202 9.88325 5.30926 10.178 5.176V5.177Z" fill="#FF3334"/>
</svg>
