<svg width="22" height="22" viewBox="0 0 22 22" fill="none" xmlns="http://www.w3.org/2000/svg">
<path d="M0 22.0002C0 19.8784 0.842855 17.8436 2.34315 16.3433C3.84344 14.843 5.87827 14.0002 8 14.0002C10.1217 14.0002 12.1566 14.843 13.6569 16.3433C15.1571 17.8436 16 19.8784 16 22.0002H0ZM8 13.0002C4.685 13.0002 2 10.3152 2 7.00018C2 3.68518 4.685 1.00018 8 1.00018C11.315 1.00018 14 3.68518 14 7.00018C14 10.3152 11.315 13.0002 8 13.0002ZM17.246 3.18418C17.7454 4.39434 18.0016 5.69101 18 7.00018C18.0016 8.30935 17.7454 9.60602 17.246 10.8162L15.569 9.59618C15.8552 8.76061 16.0008 7.88339 16 7.00018C16.0011 6.11703 15.8558 5.2398 15.57 4.40418L17.246 3.18418ZM20.548 0.78418C21.5062 2.71601 22.0032 4.84377 22 7.00018C22 9.23318 21.477 11.3442 20.548 13.2162L18.903 12.0202C19.6282 10.4461 20.0025 8.73325 20 7.00018C20 5.20818 19.607 3.50718 18.903 1.98018L20.548 0.78418Z" fill="#FF3334"/>
</svg>
