<svg width="80" height="80" viewBox="0 0 80 80" fill="none" xmlns="http://www.w3.org/2000/svg">
<g filter="url(#filter0_d_621_498)">
<rect x="20" y="16" width="40" height="40" rx="20" fill="#7C509A"/>
<path d="M44.9319 26.4748C41.6649 25.8418 38.2723 25.8418 35.0052 26.4748C33.5602 26.7913 31.7382 28.5635 31.4241 29.956C30.8586 32.6776 30.8586 35.4626 31.4241 38.1842C31.801 39.5767 33.623 41.349 35.0052 41.6654C35.0681 41.6654 35.1309 41.7287 35.1309 41.792V45.7796C35.1309 45.9694 35.3822 46.096 35.5079 45.9061L37.3927 43.944C37.3927 43.944 38.9005 42.3617 39.1518 42.1085C39.1518 42.1085 39.2147 42.0452 39.2775 42.0452C41.1623 42.1085 43.1099 41.9186 44.9948 41.6021C46.4398 41.2857 48.2618 39.5134 48.5759 38.1209C49.1414 35.3993 49.1414 32.6143 48.5759 29.8927C48.199 28.5635 46.377 26.7913 44.9319 26.4748ZM44.9948 38.3741C44.6806 39.0071 44.3037 39.5134 43.6754 39.8299C43.4869 39.8932 43.2984 39.9565 43.1099 40.0198C42.8586 39.9565 42.6702 39.8932 42.4817 39.8299C40.4712 39.0071 38.5864 37.8678 37.0785 36.2221C36.2618 35.2727 35.5707 34.1967 35.0052 33.0574C34.7539 32.4877 34.5026 31.9814 34.3141 31.4117C34.1257 30.9054 34.4398 30.399 34.7539 30.0193C35.0681 29.6395 35.445 29.3863 35.8848 29.1964C36.199 29.0066 36.5131 29.1331 36.7644 29.3863C37.267 30.0193 37.7696 30.6522 38.1466 31.3484C38.3979 31.7915 38.3351 32.2979 37.8953 32.6143C37.7696 32.6776 37.7068 32.7409 37.5812 32.8675C37.5183 32.9308 37.3927 32.9941 37.3298 33.1207C37.2042 33.3106 37.2042 33.5005 37.267 33.6903C37.7696 35.1461 38.712 36.2854 40.1571 36.9183C40.4084 37.0449 40.5969 37.1082 40.911 37.1082C41.3508 37.0449 41.5393 36.5386 41.8534 36.2854C42.1675 36.0322 42.5445 36.0322 42.9215 36.2221C43.2356 36.412 43.5497 36.6652 43.9267 36.9183C44.2408 37.1715 44.555 37.3614 44.8691 37.6146C45.0576 37.7412 45.1204 38.0576 44.9948 38.3741ZM42.356 33.627C42.2932 33.627 42.2304 33.627 42.356 33.627C42.1047 33.627 42.0419 33.5005 41.9791 33.3106C41.9791 33.184 41.9791 32.9941 41.9162 32.8675C41.8534 32.6143 41.7278 32.3612 41.4764 32.1713C41.3508 32.108 41.2251 32.0447 41.0995 31.9814C40.911 31.9181 40.7853 31.9181 40.5969 31.9181C40.4084 31.8548 40.3455 31.7282 40.3455 31.5383C40.3455 31.4117 40.534 31.2852 40.6597 31.2852C41.6649 31.3484 42.4188 31.9181 42.5445 33.1207C42.5445 33.184 42.5445 33.3106 42.5445 33.3739C42.5445 33.5005 42.4817 33.627 42.356 33.627ZM41.7277 30.8421C41.4136 30.7155 41.0995 30.5889 40.7225 30.5256C40.5969 30.5256 40.4084 30.4623 40.2827 30.4623C40.0942 30.4623 39.9686 30.3357 40.0314 30.1459C40.0314 29.956 40.1571 29.8294 40.3455 29.8927C40.9738 29.956 41.5393 30.0826 42.1047 30.3357C43.2356 30.9054 43.8639 31.8548 44.0524 33.1207C44.0524 33.184 44.0524 33.2473 44.0524 33.3106C44.0524 33.4372 44.0524 33.5637 44.0524 33.7536C44.0524 33.8169 44.0524 33.8802 44.0524 33.9435C43.9895 34.1967 43.5497 34.26 43.4869 33.9435C43.4869 33.8802 43.4241 33.7536 43.4241 33.6903C43.4241 33.1207 43.2984 32.551 43.0471 32.0447C42.6702 31.475 42.2304 31.0953 41.7277 30.8421ZM45.1204 34.6398C44.9319 34.6398 44.8063 34.4499 44.8063 34.26C44.8063 33.8802 44.7435 33.5005 44.6806 33.1207C44.4293 31.0953 42.7958 29.4496 40.8482 29.1331C40.534 29.0699 40.2199 29.0699 39.9686 29.0066C39.7801 29.0066 39.5288 29.0066 39.466 28.7534C39.4031 28.5635 39.5916 28.3736 39.7801 28.3736C39.8429 28.3736 39.9058 28.3736 39.9058 28.3736C40.0314 28.3736 42.4817 28.4369 39.9058 28.3736C42.5445 28.4369 44.7435 30.2092 45.1832 32.8675C45.2461 33.3106 45.3089 33.7536 45.3089 34.26C45.4346 34.4499 45.3089 34.6398 45.1204 34.6398Z" fill="white"/>
</g>
<defs>
<filter id="filter0_d_621_498" x="0" y="0" width="80" height="80" filterUnits="userSpaceOnUse" color-interpolation-filters="sRGB">
<feFlood flood-opacity="0" result="BackgroundImageFix"/>
<feColorMatrix in="SourceAlpha" type="matrix" values="0 0 0 0 0 0 0 0 0 0 0 0 0 0 0 0 0 0 127 0" result="hardAlpha"/>
<feOffset dy="4"/>
<feGaussianBlur stdDeviation="10"/>
<feComposite in2="hardAlpha" operator="out"/>
<feColorMatrix type="matrix" values="0 0 0 0 0 0 0 0 0 0 0 0 0 0 0 0 0 0 0.08 0"/>
<feBlend mode="normal" in2="BackgroundImageFix" result="effect1_dropShadow_621_498"/>
<feBlend mode="normal" in="SourceGraphic" in2="effect1_dropShadow_621_498" result="shape"/>
</filter>
</defs>
</svg>
