<svg width="40" height="40" viewBox="0 0 40 40" fill="none" xmlns="http://www.w3.org/2000/svg">
<rect width="40" height="40" rx="20" fill="white"/>
<path d="M24.9319 10.4747C21.6649 9.84176 18.2723 9.84176 15.0052 10.4747C13.5602 10.7912 11.7382 12.5634 11.4241 13.9559C10.8586 16.6776 10.8586 19.4625 11.4241 22.1842C11.801 23.5766 13.623 25.3489 15.0052 25.6653C15.0681 25.6653 15.1309 25.7286 15.1309 25.7919V29.7795C15.1309 29.9694 15.3822 30.096 15.5079 29.9061L17.3927 27.9439C17.3927 27.9439 18.9005 26.3616 19.1518 26.1084C19.1518 26.1084 19.2147 26.0451 19.2775 26.0451C21.1623 26.1084 23.1099 25.9185 24.9948 25.6021C26.4398 25.2856 28.2618 23.5133 28.5759 22.1209C29.1414 19.3992 29.1414 16.6143 28.5759 13.8926C28.199 12.5634 26.377 10.7912 24.9319 10.4747ZM24.9948 22.374C24.6806 23.007 24.3037 23.5133 23.6754 23.8298C23.4869 23.8931 23.2984 23.9564 23.1099 24.0197C22.8586 23.9564 22.6702 23.8931 22.4817 23.8298C20.4712 23.007 18.5864 21.8677 17.0785 20.222C16.2618 19.2726 15.5707 18.1966 15.0052 17.0573C14.7539 16.4877 14.5026 15.9813 14.3141 15.4117C14.1257 14.9053 14.4398 14.399 14.7539 14.0192C15.0681 13.6394 15.445 13.3862 15.8848 13.1964C16.199 13.0065 16.5131 13.1331 16.7644 13.3862C17.267 14.0192 17.7696 14.6521 18.1466 15.3484C18.3979 15.7914 18.3351 16.2978 17.8953 16.6143C17.7696 16.6776 17.7068 16.7408 17.5812 16.8674C17.5183 16.9307 17.3927 16.994 17.3298 17.1206C17.2042 17.3105 17.2042 17.5004 17.267 17.6903C17.7696 19.146 18.712 20.2853 20.1571 20.9183C20.4084 21.0449 20.5969 21.1082 20.911 21.1082C21.3508 21.0449 21.5393 20.5385 21.8534 20.2853C22.1675 20.0322 22.5445 20.0322 22.9215 20.222C23.2356 20.4119 23.5497 20.6651 23.9267 20.9183C24.2408 21.1715 24.555 21.3613 24.8691 21.6145C25.0576 21.7411 25.1204 22.0576 24.9948 22.374ZM22.356 17.627C22.2932 17.627 22.2304 17.627 22.356 17.627C22.1047 17.627 22.0419 17.5004 21.9791 17.3105C21.9791 17.1839 21.9791 16.994 21.9162 16.8674C21.8534 16.6143 21.7278 16.3611 21.4764 16.1712C21.3508 16.1079 21.2251 16.0446 21.0995 15.9813C20.911 15.918 20.7853 15.918 20.5969 15.918C20.4084 15.8547 20.3455 15.7281 20.3455 15.5383C20.3455 15.4117 20.534 15.2851 20.6597 15.2851C21.6649 15.3484 22.4188 15.918 22.5445 17.1206C22.5445 17.1839 22.5445 17.3105 22.5445 17.3738C22.5445 17.5004 22.4817 17.627 22.356 17.627ZM21.7277 14.842C21.4136 14.7154 21.0995 14.5888 20.7225 14.5255C20.5969 14.5255 20.4084 14.4623 20.2827 14.4623C20.0942 14.4623 19.9686 14.3357 20.0314 14.1458C20.0314 13.9559 20.1571 13.8293 20.3455 13.8926C20.9738 13.9559 21.5393 14.0825 22.1047 14.3357C23.2356 14.9053 23.8639 15.8547 24.0524 17.1206C24.0524 17.1839 24.0524 17.2472 24.0524 17.3105C24.0524 17.4371 24.0524 17.5637 24.0524 17.7536C24.0524 17.8169 24.0524 17.8801 24.0524 17.9434C23.9895 18.1966 23.5497 18.2599 23.4869 17.9434C23.4869 17.8801 23.4241 17.7536 23.4241 17.6903C23.4241 17.1206 23.2984 16.551 23.0471 16.0446C22.6702 15.475 22.2304 15.0952 21.7277 14.842ZM25.1204 18.6397C24.9319 18.6397 24.8063 18.4498 24.8063 18.2599C24.8063 17.8801 24.7435 17.5004 24.6806 17.1206C24.4293 15.0952 22.7958 13.4495 20.8482 13.1331C20.534 13.0698 20.2199 13.0698 19.9686 13.0065C19.7801 13.0065 19.5288 13.0065 19.466 12.7533C19.4031 12.5634 19.5916 12.3735 19.7801 12.3735C19.8429 12.3735 19.9058 12.3735 19.9058 12.3735C20.0314 12.3735 22.4817 12.4368 19.9058 12.3735C22.5445 12.4368 24.7435 14.2091 25.1832 16.8674C25.2461 17.3105 25.3089 17.7536 25.3089 18.2599C25.4346 18.4498 25.3089 18.6397 25.1204 18.6397Z" fill="#FF3334"/>
</svg>
