<svg width="41" height="40" viewBox="0 0 41 40" fill="none" xmlns="http://www.w3.org/2000/svg">
<path d="M4.00023 33.8441L1.30023 32.7541C0.80853 32.5552 0.415983 32.1691 0.208945 31.6807C0.0019059 31.1924 -0.00266658 30.6418 0.196233 30.1501L4.00023 20.7341V33.8441ZM13.7202 38.0001H10.0002C9.4698 38.0001 8.96109 37.7894 8.58602 37.4143C8.21095 37.0392 8.00023 36.5305 8.00023 36.0001V23.8441L13.7202 38.0001ZM8.04423 7.93607L26.5882 0.444074C27.0797 0.245799 27.6298 0.250698 28.1177 0.457696C28.6055 0.664693 28.9913 1.05686 29.1902 1.54807L40.4302 29.3641C40.5287 29.6077 40.5781 29.8683 40.5758 30.131C40.5735 30.3937 40.5194 30.6534 40.4167 30.8952C40.314 31.137 40.1647 31.3563 39.9772 31.5403C39.7898 31.7244 39.5679 31.8698 39.3242 31.9681L20.7802 39.4601C20.5366 39.5585 20.276 39.608 20.0133 39.6057C19.7506 39.6033 19.4909 39.5493 19.2491 39.4466C19.0073 39.3439 18.7881 39.1945 18.604 39.0071C18.4199 38.8196 18.2745 38.5977 18.1762 38.3541L6.94023 10.5401C6.74207 10.0483 6.74725 9.49805 6.95464 9.01014C7.16203 8.52223 7.55466 8.13663 8.04623 7.93807L8.04423 7.93607ZM14.0002 14.0001C14.5307 14.0001 15.0394 13.7894 15.4144 13.4143C15.7895 13.0392 16.0002 12.5305 16.0002 12.0001C16.0002 11.4696 15.7895 10.9609 15.4144 10.5859C15.0394 10.2108 14.5307 10.0001 14.0002 10.0001C13.4698 10.0001 12.9611 10.2108 12.586 10.5859C12.2109 10.9609 12.0002 11.4696 12.0002 12.0001C12.0002 12.5305 12.2109 13.0392 12.586 13.4143C12.9611 13.7894 13.4698 14.0001 14.0002 14.0001Z" fill="#FF3334"/>
</svg>
